<?xml version="1.0" encoding="utf-8" standalone="no"?>
<!DOCTYPE svg PUBLIC "-//W3C//DTD SVG 1.1//EN"
  "http://www.w3.org/Graphics/SVG/1.1/DTD/svg11.dtd">
<!-- Created with matplotlib (https://matplotlib.org/) -->
<svg height="1800pt" version="1.1" viewBox="0 0 1800 1800" width="1800pt" xmlns="http://www.w3.org/2000/svg" xmlns:xlink="http://www.w3.org/1999/xlink">
 <defs>
  <style type="text/css">
*{stroke-linecap:butt;stroke-linejoin:round;white-space:pre;}
  </style>
 </defs>
 <g id="figure_1">
  <g id="patch_1">
   <path d="M 0 1800 
L 1800 1800 
L 1800 0 
L 0 0 
z
" style="fill:#ffffff;"/>
  </g>
  <g id="axes_1">
   <g id="patch_2">
    <path d="M 225 1575 
L 1620 1575 
L 1620 216 
L 225 216 
z
" style="fill:#ffffff;"/>
   </g>
   <g id="line2d_1">
    <path clip-path="url(#p2c84d56c20)" d="M 225 1119.582702 
L 1620 1119.582702 
" style="fill:none;stroke:#000000;stroke-linecap:square;stroke-width:1.5;"/>
   </g>
   <g id="line2d_2">
    <path clip-path="url(#p2c84d56c20)" d="M 890.800749 1575 
L 890.800749 216 
" style="fill:none;stroke:#000000;stroke-linecap:square;stroke-width:1.5;"/>
   </g>
   <g id="QuadMesh_1">
    <path clip-path="url(#p2c84d56c20)" d="M 288.409091 1505.321424 
L 469.577922 1505.321424 
L 469.577922 1437.124274 
L 288.409091 1437.124274 
L 288.409091 1505.321424 
" style="fill:none;"/>
    <path clip-path="url(#p2c84d56c20)" d="M 469.577922 1505.321424 
L 650.746753 1505.321424 
L 650.746753 1437.124274 
L 469.577922 1437.124274 
L 469.577922 1505.321424 
" style="fill:none;"/>
    <path clip-path="url(#p2c84d56c20)" d="M 650.746753 1505.321424 
L 831.915584 1505.321424 
L 831.915584 1437.124274 
L 650.746753 1437.124274 
L 650.746753 1505.321424 
" style="fill:none;"/>
    <path clip-path="url(#p2c84d56c20)" d="M 831.915584 1505.321424 
L 1013.084416 1505.321424 
L 1013.084416 1437.124274 
L 831.915584 1437.124274 
L 831.915584 1505.321424 
" style="fill:#33a5f5;"/>
    <path clip-path="url(#p2c84d56c20)" d="M 1013.084416 1505.321424 
L 1194.253247 1505.321424 
L 1194.253247 1437.124274 
L 1013.084416 1437.124274 
L 1013.084416 1505.321424 
" style="fill:#7db7f3;"/>
    <path clip-path="url(#p2c84d56c20)" d="M 1194.253247 1505.321424 
L 1375.422078 1505.321424 
L 1375.422078 1437.124274 
L 1194.253247 1437.124274 
L 1194.253247 1505.321424 
" style="fill:none;"/>
    <path clip-path="url(#p2c84d56c20)" d="M 1375.422078 1505.321424 
L 1556.590909 1505.321424 
L 1556.590909 1437.124274 
L 1375.422078 1437.124274 
L 1375.422078 1505.321424 
" style="fill:#7db7f3;"/>
    <path clip-path="url(#p2c84d56c20)" d="M 288.409091 1437.124274 
L 469.577922 1437.124274 
L 469.577922 1368.927124 
L 288.409091 1368.927124 
L 288.409091 1437.124274 
" style="fill:none;"/>
    <path clip-path="url(#p2c84d56c20)" d="M 469.577922 1437.124274 
L 650.746753 1437.124274 
L 650.746753 1368.927124 
L 469.577922 1368.927124 
L 469.577922 1437.124274 
" style="fill:#7db7f3;"/>
    <path clip-path="url(#p2c84d56c20)" d="M 650.746753 1437.124274 
L 831.915584 1437.124274 
L 831.915584 1368.927124 
L 650.746753 1368.927124 
L 650.746753 1437.124274 
" style="fill:none;"/>
    <path clip-path="url(#p2c84d56c20)" d="M 831.915584 1437.124274 
L 1013.084416 1437.124274 
L 1013.084416 1368.927124 
L 831.915584 1368.927124 
L 831.915584 1437.124274 
" style="fill:none;"/>
    <path clip-path="url(#p2c84d56c20)" d="M 1013.084416 1437.124274 
L 1194.253247 1437.124274 
L 1194.253247 1368.927124 
L 1013.084416 1368.927124 
L 1013.084416 1437.124274 
" style="fill:none;"/>
    <path clip-path="url(#p2c84d56c20)" d="M 1194.253247 1437.124274 
L 1375.422078 1437.124274 
L 1375.422078 1368.927124 
L 1194.253247 1368.927124 
L 1194.253247 1437.124274 
" style="fill:none;"/>
    <path clip-path="url(#p2c84d56c20)" d="M 1375.422078 1437.124274 
L 1556.590909 1437.124274 
L 1556.590909 1368.927124 
L 1375.422078 1368.927124 
L 1375.422078 1437.124274 
" style="fill:#7db7f3;"/>
    <path clip-path="url(#p2c84d56c20)" d="M 288.409091 1368.927124 
L 469.577922 1368.927124 
L 469.577922 1300.729974 
L 288.409091 1300.729974 
L 288.409091 1368.927124 
" style="fill:none;"/>
    <path clip-path="url(#p2c84d56c20)" d="M 469.577922 1368.927124 
L 650.746753 1368.927124 
L 650.746753 1300.729974 
L 469.577922 1300.729974 
L 469.577922 1368.927124 
" style="fill:none;"/>
    <path clip-path="url(#p2c84d56c20)" d="M 650.746753 1368.927124 
L 831.915584 1368.927124 
L 831.915584 1300.729974 
L 650.746753 1300.729974 
L 650.746753 1368.927124 
" style="fill:none;"/>
    <path clip-path="url(#p2c84d56c20)" d="M 831.915584 1368.927124 
L 1013.084416 1368.927124 
L 1013.084416 1300.729974 
L 831.915584 1300.729974 
L 831.915584 1368.927124 
" style="fill:none;"/>
    <path clip-path="url(#p2c84d56c20)" d="M 1013.084416 1368.927124 
L 1194.253247 1368.927124 
L 1194.253247 1300.729974 
L 1013.084416 1300.729974 
L 1013.084416 1368.927124 
" style="fill:none;"/>
    <path clip-path="url(#p2c84d56c20)" d="M 1194.253247 1368.927124 
L 1375.422078 1368.927124 
L 1375.422078 1300.729974 
L 1194.253247 1300.729974 
L 1194.253247 1368.927124 
" style="fill:none;"/>
    <path clip-path="url(#p2c84d56c20)" d="M 1375.422078 1368.927124 
L 1556.590909 1368.927124 
L 1556.590909 1300.729974 
L 1375.422078 1300.729974 
L 1375.422078 1368.927124 
" style="fill:none;"/>
    <path clip-path="url(#p2c84d56c20)" d="M 288.409091 1300.729974 
L 469.577922 1300.729974 
L 469.577922 1232.532825 
L 288.409091 1232.532825 
L 288.409091 1300.729974 
" style="fill:none;"/>
    <path clip-path="url(#p2c84d56c20)" d="M 469.577922 1300.729974 
L 650.746753 1300.729974 
L 650.746753 1232.532825 
L 469.577922 1232.532825 
L 469.577922 1300.729974 
" style="fill:none;"/>
    <path clip-path="url(#p2c84d56c20)" d="M 650.746753 1300.729974 
L 831.915584 1300.729974 
L 831.915584 1232.532825 
L 650.746753 1232.532825 
L 650.746753 1300.729974 
" style="fill:none;"/>
    <path clip-path="url(#p2c84d56c20)" d="M 831.915584 1300.729974 
L 1013.084416 1300.729974 
L 1013.084416 1232.532825 
L 831.915584 1232.532825 
L 831.915584 1300.729974 
" style="fill:#7db7f3;"/>
    <path clip-path="url(#p2c84d56c20)" d="M 1013.084416 1300.729974 
L 1194.253247 1300.729974 
L 1194.253247 1232.532825 
L 1013.084416 1232.532825 
L 1013.084416 1300.729974 
" style="fill:none;"/>
    <path clip-path="url(#p2c84d56c20)" d="M 1194.253247 1300.729974 
L 1375.422078 1300.729974 
L 1375.422078 1232.532825 
L 1194.253247 1232.532825 
L 1194.253247 1300.729974 
" style="fill:#33a5f5;"/>
    <path clip-path="url(#p2c84d56c20)" d="M 1375.422078 1300.729974 
L 1556.590909 1300.729974 
L 1556.590909 1232.532825 
L 1375.422078 1232.532825 
L 1375.422078 1300.729974 
" style="fill:#7db7f3;"/>
    <path clip-path="url(#p2c84d56c20)" d="M 288.409091 1232.532825 
L 469.577922 1232.532825 
L 469.577922 1164.335675 
L 288.409091 1164.335675 
L 288.409091 1232.532825 
" style="fill:none;"/>
    <path clip-path="url(#p2c84d56c20)" d="M 469.577922 1232.532825 
L 650.746753 1232.532825 
L 650.746753 1164.335675 
L 469.577922 1164.335675 
L 469.577922 1232.532825 
" style="fill:#7db7f3;"/>
    <path clip-path="url(#p2c84d56c20)" d="M 650.746753 1232.532825 
L 831.915584 1232.532825 
L 831.915584 1164.335675 
L 650.746753 1164.335675 
L 650.746753 1232.532825 
" style="fill:#7db7f3;"/>
    <path clip-path="url(#p2c84d56c20)" d="M 831.915584 1232.532825 
L 1013.084416 1232.532825 
L 1013.084416 1164.335675 
L 831.915584 1164.335675 
L 831.915584 1232.532825 
" style="fill:#7db7f3;"/>
    <path clip-path="url(#p2c84d56c20)" d="M 1013.084416 1232.532825 
L 1194.253247 1232.532825 
L 1194.253247 1164.335675 
L 1013.084416 1164.335675 
L 1013.084416 1232.532825 
" style="fill:#2a90d8;"/>
    <path clip-path="url(#p2c84d56c20)" d="M 1194.253247 1232.532825 
L 1375.422078 1232.532825 
L 1375.422078 1164.335675 
L 1194.253247 1164.335675 
L 1194.253247 1232.532825 
" style="fill:none;"/>
    <path clip-path="url(#p2c84d56c20)" d="M 1375.422078 1232.532825 
L 1556.590909 1232.532825 
L 1556.590909 1164.335675 
L 1375.422078 1164.335675 
L 1375.422078 1232.532825 
" style="fill:none;"/>
    <path clip-path="url(#p2c84d56c20)" d="M 288.409091 1164.335675 
L 469.577922 1164.335675 
L 469.577922 1096.138525 
L 288.409091 1096.138525 
L 288.409091 1164.335675 
" style="fill:#3d546e;"/>
    <path clip-path="url(#p2c84d56c20)" d="M 469.577922 1164.335675 
L 650.746753 1164.335675 
L 650.746753 1096.138525 
L 469.577922 1096.138525 
L 469.577922 1164.335675 
" style="fill:#7db7f3;"/>
    <path clip-path="url(#p2c84d56c20)" d="M 650.746753 1164.335675 
L 831.915584 1164.335675 
L 831.915584 1096.138525 
L 650.746753 1096.138525 
L 650.746753 1164.335675 
" style="fill:#33a5f5;"/>
    <path clip-path="url(#p2c84d56c20)" d="M 831.915584 1164.335675 
L 1013.084416 1164.335675 
L 1013.084416 1096.138525 
L 831.915584 1096.138525 
L 831.915584 1164.335675 
" style="fill:#2a90d8;"/>
    <path clip-path="url(#p2c84d56c20)" d="M 1013.084416 1164.335675 
L 1194.253247 1164.335675 
L 1194.253247 1096.138525 
L 1013.084416 1096.138525 
L 1013.084416 1164.335675 
" style="fill:#33a5f5;"/>
    <path clip-path="url(#p2c84d56c20)" d="M 1194.253247 1164.335675 
L 1375.422078 1164.335675 
L 1375.422078 1096.138525 
L 1194.253247 1096.138525 
L 1194.253247 1164.335675 
" style="fill:#33a5f5;"/>
    <path clip-path="url(#p2c84d56c20)" d="M 1375.422078 1164.335675 
L 1556.590909 1164.335675 
L 1556.590909 1096.138525 
L 1375.422078 1096.138525 
L 1375.422078 1164.335675 
" style="fill:#3d546e;"/>
    <path clip-path="url(#p2c84d56c20)" d="M 288.409091 1096.138525 
L 469.577922 1096.138525 
L 469.577922 1027.941375 
L 288.409091 1027.941375 
L 288.409091 1096.138525 
" style="fill:#337cb6;"/>
    <path clip-path="url(#p2c84d56c20)" d="M 469.577922 1096.138525 
L 650.746753 1096.138525 
L 650.746753 1027.941375 
L 469.577922 1027.941375 
L 469.577922 1096.138525 
" style="fill:#7db7f3;"/>
    <path clip-path="url(#p2c84d56c20)" d="M 650.746753 1096.138525 
L 831.915584 1096.138525 
L 831.915584 1027.941375 
L 650.746753 1027.941375 
L 650.746753 1096.138525 
" style="fill:#33a5f5;"/>
    <path clip-path="url(#p2c84d56c20)" d="M 831.915584 1096.138525 
L 1013.084416 1096.138525 
L 1013.084416 1027.941375 
L 831.915584 1027.941375 
L 831.915584 1096.138525 
" style="fill:#7db7f3;"/>
    <path clip-path="url(#p2c84d56c20)" d="M 1013.084416 1096.138525 
L 1194.253247 1096.138525 
L 1194.253247 1027.941375 
L 1013.084416 1027.941375 
L 1013.084416 1096.138525 
" style="fill:none;"/>
    <path clip-path="url(#p2c84d56c20)" d="M 1194.253247 1096.138525 
L 1375.422078 1096.138525 
L 1375.422078 1027.941375 
L 1194.253247 1027.941375 
L 1194.253247 1096.138525 
" style="fill:none;"/>
    <path clip-path="url(#p2c84d56c20)" d="M 1375.422078 1096.138525 
L 1556.590909 1096.138525 
L 1556.590909 1027.941375 
L 1375.422078 1027.941375 
L 1375.422078 1096.138525 
" style="fill:#7db7f3;"/>
    <path clip-path="url(#p2c84d56c20)" d="M 288.409091 1027.941375 
L 469.577922 1027.941375 
L 469.577922 959.744225 
L 288.409091 959.744225 
L 288.409091 1027.941375 
" style="fill:#7db7f3;"/>
    <path clip-path="url(#p2c84d56c20)" d="M 469.577922 1027.941375 
L 650.746753 1027.941375 
L 650.746753 959.744225 
L 469.577922 959.744225 
L 469.577922 1027.941375 
" style="fill:none;"/>
    <path clip-path="url(#p2c84d56c20)" d="M 650.746753 1027.941375 
L 831.915584 1027.941375 
L 831.915584 959.744225 
L 650.746753 959.744225 
L 650.746753 1027.941375 
" style="fill:none;"/>
    <path clip-path="url(#p2c84d56c20)" d="M 831.915584 1027.941375 
L 1013.084416 1027.941375 
L 1013.084416 959.744225 
L 831.915584 959.744225 
L 831.915584 1027.941375 
" style="fill:none;"/>
    <path clip-path="url(#p2c84d56c20)" d="M 1013.084416 1027.941375 
L 1194.253247 1027.941375 
L 1194.253247 959.744225 
L 1013.084416 959.744225 
L 1013.084416 1027.941375 
" style="fill:#7db7f3;"/>
    <path clip-path="url(#p2c84d56c20)" d="M 1194.253247 1027.941375 
L 1375.422078 1027.941375 
L 1375.422078 959.744225 
L 1194.253247 959.744225 
L 1194.253247 1027.941375 
" style="fill:#33a5f5;"/>
    <path clip-path="url(#p2c84d56c20)" d="M 1375.422078 1027.941375 
L 1556.590909 1027.941375 
L 1556.590909 959.744225 
L 1375.422078 959.744225 
L 1375.422078 1027.941375 
" style="fill:#7db7f3;"/>
    <path clip-path="url(#p2c84d56c20)" d="M 288.409091 959.744225 
L 469.577922 959.744225 
L 469.577922 891.547076 
L 288.409091 891.547076 
L 288.409091 959.744225 
" style="fill:none;"/>
    <path clip-path="url(#p2c84d56c20)" d="M 469.577922 959.744225 
L 650.746753 959.744225 
L 650.746753 891.547076 
L 469.577922 891.547076 
L 469.577922 959.744225 
" style="fill:none;"/>
    <path clip-path="url(#p2c84d56c20)" d="M 650.746753 959.744225 
L 831.915584 959.744225 
L 831.915584 891.547076 
L 650.746753 891.547076 
L 650.746753 959.744225 
" style="fill:none;"/>
    <path clip-path="url(#p2c84d56c20)" d="M 831.915584 959.744225 
L 1013.084416 959.744225 
L 1013.084416 891.547076 
L 831.915584 891.547076 
L 831.915584 959.744225 
" style="fill:none;"/>
    <path clip-path="url(#p2c84d56c20)" d="M 1013.084416 959.744225 
L 1194.253247 959.744225 
L 1194.253247 891.547076 
L 1013.084416 891.547076 
L 1013.084416 959.744225 
" style="fill:none;"/>
    <path clip-path="url(#p2c84d56c20)" d="M 1194.253247 959.744225 
L 1375.422078 959.744225 
L 1375.422078 891.547076 
L 1194.253247 891.547076 
L 1194.253247 959.744225 
" style="fill:none;"/>
    <path clip-path="url(#p2c84d56c20)" d="M 1375.422078 959.744225 
L 1556.590909 959.744225 
L 1556.590909 891.547076 
L 1375.422078 891.547076 
L 1375.422078 959.744225 
" style="fill:none;"/>
    <path clip-path="url(#p2c84d56c20)" d="M 288.409091 891.547076 
L 469.577922 891.547076 
L 469.577922 823.349926 
L 288.409091 823.349926 
L 288.409091 891.547076 
" style="fill:none;"/>
    <path clip-path="url(#p2c84d56c20)" d="M 469.577922 891.547076 
L 650.746753 891.547076 
L 650.746753 823.349926 
L 469.577922 823.349926 
L 469.577922 891.547076 
" style="fill:none;"/>
    <path clip-path="url(#p2c84d56c20)" d="M 650.746753 891.547076 
L 831.915584 891.547076 
L 831.915584 823.349926 
L 650.746753 823.349926 
L 650.746753 891.547076 
" style="fill:none;"/>
    <path clip-path="url(#p2c84d56c20)" d="M 831.915584 891.547076 
L 1013.084416 891.547076 
L 1013.084416 823.349926 
L 831.915584 823.349926 
L 831.915584 891.547076 
" style="fill:none;"/>
    <path clip-path="url(#p2c84d56c20)" d="M 1013.084416 891.547076 
L 1194.253247 891.547076 
L 1194.253247 823.349926 
L 1013.084416 823.349926 
L 1013.084416 891.547076 
" style="fill:none;"/>
    <path clip-path="url(#p2c84d56c20)" d="M 1194.253247 891.547076 
L 1375.422078 891.547076 
L 1375.422078 823.349926 
L 1194.253247 823.349926 
L 1194.253247 891.547076 
" style="fill:none;"/>
    <path clip-path="url(#p2c84d56c20)" d="M 1375.422078 891.547076 
L 1556.590909 891.547076 
L 1556.590909 823.349926 
L 1375.422078 823.349926 
L 1375.422078 891.547076 
" style="fill:none;"/>
    <path clip-path="url(#p2c84d56c20)" d="M 288.409091 823.349926 
L 469.577922 823.349926 
L 469.577922 755.152776 
L 288.409091 755.152776 
L 288.409091 823.349926 
" style="fill:none;"/>
    <path clip-path="url(#p2c84d56c20)" d="M 469.577922 823.349926 
L 650.746753 823.349926 
L 650.746753 755.152776 
L 469.577922 755.152776 
L 469.577922 823.349926 
" style="fill:none;"/>
    <path clip-path="url(#p2c84d56c20)" d="M 650.746753 823.349926 
L 831.915584 823.349926 
L 831.915584 755.152776 
L 650.746753 755.152776 
L 650.746753 823.349926 
" style="fill:#7db7f3;"/>
    <path clip-path="url(#p2c84d56c20)" d="M 831.915584 823.349926 
L 1013.084416 823.349926 
L 1013.084416 755.152776 
L 831.915584 755.152776 
L 831.915584 823.349926 
" style="fill:none;"/>
    <path clip-path="url(#p2c84d56c20)" d="M 1013.084416 823.349926 
L 1194.253247 823.349926 
L 1194.253247 755.152776 
L 1013.084416 755.152776 
L 1013.084416 823.349926 
" style="fill:none;"/>
    <path clip-path="url(#p2c84d56c20)" d="M 1194.253247 823.349926 
L 1375.422078 823.349926 
L 1375.422078 755.152776 
L 1194.253247 755.152776 
L 1194.253247 823.349926 
" style="fill:none;"/>
    <path clip-path="url(#p2c84d56c20)" d="M 1375.422078 823.349926 
L 1556.590909 823.349926 
L 1556.590909 755.152776 
L 1375.422078 755.152776 
L 1375.422078 823.349926 
" style="fill:none;"/>
    <path clip-path="url(#p2c84d56c20)" d="M 288.409091 755.152776 
L 469.577922 755.152776 
L 469.577922 686.955626 
L 288.409091 686.955626 
L 288.409091 755.152776 
" style="fill:none;"/>
    <path clip-path="url(#p2c84d56c20)" d="M 469.577922 755.152776 
L 650.746753 755.152776 
L 650.746753 686.955626 
L 469.577922 686.955626 
L 469.577922 755.152776 
" style="fill:none;"/>
    <path clip-path="url(#p2c84d56c20)" d="M 650.746753 755.152776 
L 831.915584 755.152776 
L 831.915584 686.955626 
L 650.746753 686.955626 
L 650.746753 755.152776 
" style="fill:none;"/>
    <path clip-path="url(#p2c84d56c20)" d="M 831.915584 755.152776 
L 1013.084416 755.152776 
L 1013.084416 686.955626 
L 831.915584 686.955626 
L 831.915584 755.152776 
" style="fill:none;"/>
    <path clip-path="url(#p2c84d56c20)" d="M 1013.084416 755.152776 
L 1194.253247 755.152776 
L 1194.253247 686.955626 
L 1013.084416 686.955626 
L 1013.084416 755.152776 
" style="fill:none;"/>
    <path clip-path="url(#p2c84d56c20)" d="M 1194.253247 755.152776 
L 1375.422078 755.152776 
L 1375.422078 686.955626 
L 1194.253247 686.955626 
L 1194.253247 755.152776 
" style="fill:none;"/>
    <path clip-path="url(#p2c84d56c20)" d="M 1375.422078 755.152776 
L 1556.590909 755.152776 
L 1556.590909 686.955626 
L 1375.422078 686.955626 
L 1375.422078 755.152776 
" style="fill:none;"/>
    <path clip-path="url(#p2c84d56c20)" d="M 288.409091 686.955626 
L 469.577922 686.955626 
L 469.577922 618.758476 
L 288.409091 618.758476 
L 288.409091 686.955626 
" style="fill:none;"/>
    <path clip-path="url(#p2c84d56c20)" d="M 469.577922 686.955626 
L 650.746753 686.955626 
L 650.746753 618.758476 
L 469.577922 618.758476 
L 469.577922 686.955626 
" style="fill:none;"/>
    <path clip-path="url(#p2c84d56c20)" d="M 650.746753 686.955626 
L 831.915584 686.955626 
L 831.915584 618.758476 
L 650.746753 618.758476 
L 650.746753 686.955626 
" style="fill:none;"/>
    <path clip-path="url(#p2c84d56c20)" d="M 831.915584 686.955626 
L 1013.084416 686.955626 
L 1013.084416 618.758476 
L 831.915584 618.758476 
L 831.915584 686.955626 
" style="fill:none;"/>
    <path clip-path="url(#p2c84d56c20)" d="M 1013.084416 686.955626 
L 1194.253247 686.955626 
L 1194.253247 618.758476 
L 1013.084416 618.758476 
L 1013.084416 686.955626 
" style="fill:none;"/>
    <path clip-path="url(#p2c84d56c20)" d="M 1194.253247 686.955626 
L 1375.422078 686.955626 
L 1375.422078 618.758476 
L 1194.253247 618.758476 
L 1194.253247 686.955626 
" style="fill:none;"/>
    <path clip-path="url(#p2c84d56c20)" d="M 1375.422078 686.955626 
L 1556.590909 686.955626 
L 1556.590909 618.758476 
L 1375.422078 618.758476 
L 1375.422078 686.955626 
" style="fill:none;"/>
    <path clip-path="url(#p2c84d56c20)" d="M 288.409091 618.758476 
L 469.577922 618.758476 
L 469.577922 550.561327 
L 288.409091 550.561327 
L 288.409091 618.758476 
" style="fill:none;"/>
    <path clip-path="url(#p2c84d56c20)" d="M 469.577922 618.758476 
L 650.746753 618.758476 
L 650.746753 550.561327 
L 469.577922 550.561327 
L 469.577922 618.758476 
" style="fill:#7db7f3;"/>
    <path clip-path="url(#p2c84d56c20)" d="M 650.746753 618.758476 
L 831.915584 618.758476 
L 831.915584 550.561327 
L 650.746753 550.561327 
L 650.746753 618.758476 
" style="fill:none;"/>
    <path clip-path="url(#p2c84d56c20)" d="M 831.915584 618.758476 
L 1013.084416 618.758476 
L 1013.084416 550.561327 
L 831.915584 550.561327 
L 831.915584 618.758476 
" style="fill:none;"/>
    <path clip-path="url(#p2c84d56c20)" d="M 1013.084416 618.758476 
L 1194.253247 618.758476 
L 1194.253247 550.561327 
L 1013.084416 550.561327 
L 1013.084416 618.758476 
" style="fill:none;"/>
    <path clip-path="url(#p2c84d56c20)" d="M 1194.253247 618.758476 
L 1375.422078 618.758476 
L 1375.422078 550.561327 
L 1194.253247 550.561327 
L 1194.253247 618.758476 
" style="fill:#7db7f3;"/>
    <path clip-path="url(#p2c84d56c20)" d="M 1375.422078 618.758476 
L 1556.590909 618.758476 
L 1556.590909 550.561327 
L 1375.422078 550.561327 
L 1375.422078 618.758476 
" style="fill:none;"/>
    <path clip-path="url(#p2c84d56c20)" d="M 288.409091 550.561327 
L 469.577922 550.561327 
L 469.577922 482.364177 
L 288.409091 482.364177 
L 288.409091 550.561327 
" style="fill:none;"/>
    <path clip-path="url(#p2c84d56c20)" d="M 469.577922 550.561327 
L 650.746753 550.561327 
L 650.746753 482.364177 
L 469.577922 482.364177 
L 469.577922 550.561327 
" style="fill:none;"/>
    <path clip-path="url(#p2c84d56c20)" d="M 650.746753 550.561327 
L 831.915584 550.561327 
L 831.915584 482.364177 
L 650.746753 482.364177 
L 650.746753 550.561327 
" style="fill:none;"/>
    <path clip-path="url(#p2c84d56c20)" d="M 831.915584 550.561327 
L 1013.084416 550.561327 
L 1013.084416 482.364177 
L 831.915584 482.364177 
L 831.915584 550.561327 
" style="fill:none;"/>
    <path clip-path="url(#p2c84d56c20)" d="M 1013.084416 550.561327 
L 1194.253247 550.561327 
L 1194.253247 482.364177 
L 1013.084416 482.364177 
L 1013.084416 550.561327 
" style="fill:none;"/>
    <path clip-path="url(#p2c84d56c20)" d="M 1194.253247 550.561327 
L 1375.422078 550.561327 
L 1375.422078 482.364177 
L 1194.253247 482.364177 
L 1194.253247 550.561327 
" style="fill:none;"/>
    <path clip-path="url(#p2c84d56c20)" d="M 1375.422078 550.561327 
L 1556.590909 550.561327 
L 1556.590909 482.364177 
L 1375.422078 482.364177 
L 1375.422078 550.561327 
" style="fill:none;"/>
    <path clip-path="url(#p2c84d56c20)" d="M 288.409091 482.364177 
L 469.577922 482.364177 
L 469.577922 414.167027 
L 288.409091 414.167027 
L 288.409091 482.364177 
" style="fill:none;"/>
    <path clip-path="url(#p2c84d56c20)" d="M 469.577922 482.364177 
L 650.746753 482.364177 
L 650.746753 414.167027 
L 469.577922 414.167027 
L 469.577922 482.364177 
" style="fill:none;"/>
    <path clip-path="url(#p2c84d56c20)" d="M 650.746753 482.364177 
L 831.915584 482.364177 
L 831.915584 414.167027 
L 650.746753 414.167027 
L 650.746753 482.364177 
" style="fill:none;"/>
    <path clip-path="url(#p2c84d56c20)" d="M 831.915584 482.364177 
L 1013.084416 482.364177 
L 1013.084416 414.167027 
L 831.915584 414.167027 
L 831.915584 482.364177 
" style="fill:none;"/>
    <path clip-path="url(#p2c84d56c20)" d="M 1013.084416 482.364177 
L 1194.253247 482.364177 
L 1194.253247 414.167027 
L 1013.084416 414.167027 
L 1013.084416 482.364177 
" style="fill:none;"/>
    <path clip-path="url(#p2c84d56c20)" d="M 1194.253247 482.364177 
L 1375.422078 482.364177 
L 1375.422078 414.167027 
L 1194.253247 414.167027 
L 1194.253247 482.364177 
" style="fill:none;"/>
    <path clip-path="url(#p2c84d56c20)" d="M 1375.422078 482.364177 
L 1556.590909 482.364177 
L 1556.590909 414.167027 
L 1375.422078 414.167027 
L 1375.422078 482.364177 
" style="fill:none;"/>
    <path clip-path="url(#p2c84d56c20)" d="M 288.409091 414.167027 
L 469.577922 414.167027 
L 469.577922 345.969877 
L 288.409091 345.969877 
L 288.409091 414.167027 
" style="fill:none;"/>
    <path clip-path="url(#p2c84d56c20)" d="M 469.577922 414.167027 
L 650.746753 414.167027 
L 650.746753 345.969877 
L 469.577922 345.969877 
L 469.577922 414.167027 
" style="fill:none;"/>
    <path clip-path="url(#p2c84d56c20)" d="M 650.746753 414.167027 
L 831.915584 414.167027 
L 831.915584 345.969877 
L 650.746753 345.969877 
L 650.746753 414.167027 
" style="fill:none;"/>
    <path clip-path="url(#p2c84d56c20)" d="M 831.915584 414.167027 
L 1013.084416 414.167027 
L 1013.084416 345.969877 
L 831.915584 345.969877 
L 831.915584 414.167027 
" style="fill:#7db7f3;"/>
    <path clip-path="url(#p2c84d56c20)" d="M 1013.084416 414.167027 
L 1194.253247 414.167027 
L 1194.253247 345.969877 
L 1013.084416 345.969877 
L 1013.084416 414.167027 
" style="fill:none;"/>
    <path clip-path="url(#p2c84d56c20)" d="M 1194.253247 414.167027 
L 1375.422078 414.167027 
L 1375.422078 345.969877 
L 1194.253247 345.969877 
L 1194.253247 414.167027 
" style="fill:none;"/>
    <path clip-path="url(#p2c84d56c20)" d="M 1375.422078 414.167027 
L 1556.590909 414.167027 
L 1556.590909 345.969877 
L 1375.422078 345.969877 
L 1375.422078 414.167027 
" style="fill:none;"/>
    <path clip-path="url(#p2c84d56c20)" d="M 288.409091 345.969877 
L 469.577922 345.969877 
L 469.577922 277.772727 
L 288.409091 277.772727 
L 288.409091 345.969877 
" style="fill:none;"/>
    <path clip-path="url(#p2c84d56c20)" d="M 469.577922 345.969877 
L 650.746753 345.969877 
L 650.746753 277.772727 
L 469.577922 277.772727 
L 469.577922 345.969877 
" style="fill:#7db7f3;"/>
    <path clip-path="url(#p2c84d56c20)" d="M 650.746753 345.969877 
L 831.915584 345.969877 
L 831.915584 277.772727 
L 650.746753 277.772727 
L 650.746753 345.969877 
" style="fill:none;"/>
    <path clip-path="url(#p2c84d56c20)" d="M 831.915584 345.969877 
L 1013.084416 345.969877 
L 1013.084416 277.772727 
L 831.915584 277.772727 
L 831.915584 345.969877 
" style="fill:none;"/>
    <path clip-path="url(#p2c84d56c20)" d="M 1013.084416 345.969877 
L 1194.253247 345.969877 
L 1194.253247 277.772727 
L 1013.084416 277.772727 
L 1013.084416 345.969877 
" style="fill:none;"/>
    <path clip-path="url(#p2c84d56c20)" d="M 1194.253247 345.969877 
L 1375.422078 345.969877 
L 1375.422078 277.772727 
L 1194.253247 277.772727 
L 1194.253247 345.969877 
" style="fill:none;"/>
    <path clip-path="url(#p2c84d56c20)" d="M 1375.422078 345.969877 
L 1556.590909 345.969877 
L 1556.590909 277.772727 
L 1375.422078 277.772727 
L 1375.422078 345.969877 
" style="fill:none;"/>
   </g>
   <g id="PathCollection_1">
    <defs>
     <path d="M 0 15.811388 
C 4.193229 15.811388 8.215279 14.145401 11.18034 11.18034 
C 14.145401 8.215279 15.811388 4.193229 15.811388 0 
C 15.811388 -4.193229 14.145401 -8.215279 11.18034 -11.18034 
C 8.215279 -14.145401 4.193229 -15.811388 0 -15.811388 
C -4.193229 -15.811388 -8.215279 -14.145401 -11.18034 -11.18034 
C -14.145401 -8.215279 -15.811388 -4.193229 -15.811388 0 
C -15.811388 4.193229 -14.145401 8.215279 -11.18034 11.18034 
C -8.215279 14.145401 -4.193229 15.811388 0 15.811388 
z
" id="m9f2b82b3e7" style="stroke:#ffffff;stroke-width:2.529822;"/>
    </defs>
    <g clip-path="url(#p2c84d56c20)">
     <use style="fill:#ff0000;stroke:#ffffff;stroke-width:2.529822;" x="1240.61501" xlink:href="#m9f2b82b3e7" y="1013.776288"/>
     <use style="fill:#ff0000;stroke:#ffffff;stroke-width:2.529822;" x="1142.400763" xlink:href="#m9f2b82b3e7" y="1193.558492"/>
     <use style="fill:#ff0000;stroke:#ffffff;stroke-width:2.529822;" x="1377.710625" xlink:href="#m9f2b82b3e7" y="1377.618022"/>
     <use style="fill:#ff0000;stroke:#ffffff;stroke-width:2.529822;" x="1111.663694" xlink:href="#m9f2b82b3e7" y="984.557659"/>
     <use style="fill:#ff0000;stroke:#ffffff;stroke-width:2.529822;" x="1103.521521" xlink:href="#m9f2b82b3e7" y="1497.517064"/>
     <use style="fill:#ff0000;stroke:#ffffff;stroke-width:2.529822;" x="726.59904" xlink:href="#m9f2b82b3e7" y="1051.508187"/>
     <use style="fill:#ff0000;stroke:#ffffff;stroke-width:2.529822;" x="442.151001" xlink:href="#m9f2b82b3e7" y="1040.472266"/>
    </g>
   </g>
   <g id="matplotlib.axis_1">
    <g id="xtick_1">
     <g id="line2d_3">
      <defs>
       <path d="M 0 0 
L 0 3.5 
" id="md4caf3aa7e" style="stroke:#000000;stroke-width:0.8;"/>
      </defs>
      <g>
       <use style="stroke:#000000;stroke-width:0.8;" x="349.311583" xlink:href="#md4caf3aa7e" y="1575"/>
      </g>
     </g>
     <g id="text_1">
      <!-- −4 -->
      <defs>
       <path d="M 10.59375 37.109375 
L 73.1875 37.109375 
L 73.1875 25.59375 
L 10.59375 25.59375 
z
" id="DejaVuSans-Bold-8722"/>
       <path d="M 36.8125 57.421875 
L 16.21875 26.90625 
L 36.8125 26.90625 
z
M 33.6875 72.90625 
L 54.59375 72.90625 
L 54.59375 26.90625 
L 64.984375 26.90625 
L 64.984375 13.28125 
L 54.59375 13.28125 
L 54.59375 0 
L 36.8125 0 
L 36.8125 13.28125 
L 4.5 13.28125 
L 4.5 29.390625 
z
" id="DejaVuSans-Bold-52"/>
      </defs>
      <g transform="translate(341.642833 1589.598438)scale(0.1 -0.1)">
       <use xlink:href="#DejaVuSans-Bold-8722"/>
       <use x="83.789062" xlink:href="#DejaVuSans-Bold-52"/>
      </g>
     </g>
    </g>
    <g id="xtick_2">
     <g id="line2d_4">
      <g>
       <use style="stroke:#000000;stroke-width:0.8;" x="620.056166" xlink:href="#md4caf3aa7e" y="1575"/>
      </g>
     </g>
     <g id="text_2">
      <!-- −2 -->
      <defs>
       <path d="M 28.8125 13.8125 
L 60.890625 13.8125 
L 60.890625 0 
L 7.90625 0 
L 7.90625 13.8125 
L 34.515625 37.3125 
Q 38.09375 40.53125 39.796875 43.609375 
Q 41.5 46.6875 41.5 50 
Q 41.5 55.125 38.0625 58.25 
Q 34.625 61.375 28.90625 61.375 
Q 24.515625 61.375 19.28125 59.5 
Q 14.0625 57.625 8.109375 53.90625 
L 8.109375 69.921875 
Q 14.453125 72.015625 20.65625 73.109375 
Q 26.859375 74.21875 32.8125 74.21875 
Q 45.90625 74.21875 53.15625 68.453125 
Q 60.40625 62.703125 60.40625 52.390625 
Q 60.40625 46.4375 57.328125 41.28125 
Q 54.25 36.140625 44.390625 27.484375 
z
" id="DejaVuSans-Bold-50"/>
      </defs>
      <g transform="translate(612.387416 1589.598438)scale(0.1 -0.1)">
       <use xlink:href="#DejaVuSans-Bold-8722"/>
       <use x="83.789062" xlink:href="#DejaVuSans-Bold-50"/>
      </g>
     </g>
    </g>
    <g id="xtick_3">
     <g id="line2d_5">
      <g>
       <use style="stroke:#000000;stroke-width:0.8;" x="890.800749" xlink:href="#md4caf3aa7e" y="1575"/>
      </g>
     </g>
     <g id="text_3">
      <!-- 0 -->
      <defs>
       <path d="M 46 36.53125 
Q 46 50.203125 43.4375 55.78125 
Q 40.875 61.375 34.8125 61.375 
Q 28.765625 61.375 26.171875 55.78125 
Q 23.578125 50.203125 23.578125 36.53125 
Q 23.578125 22.703125 26.171875 17.03125 
Q 28.765625 11.375 34.8125 11.375 
Q 40.828125 11.375 43.40625 17.03125 
Q 46 22.703125 46 36.53125 
z
M 64.796875 36.375 
Q 64.796875 18.265625 56.984375 8.421875 
Q 49.171875 -1.421875 34.8125 -1.421875 
Q 20.40625 -1.421875 12.59375 8.421875 
Q 4.78125 18.265625 4.78125 36.375 
Q 4.78125 54.546875 12.59375 64.375 
Q 20.40625 74.21875 34.8125 74.21875 
Q 49.171875 74.21875 56.984375 64.375 
Q 64.796875 54.546875 64.796875 36.375 
z
" id="DejaVuSans-Bold-48"/>
      </defs>
      <g transform="translate(887.321843 1589.598438)scale(0.1 -0.1)">
       <use xlink:href="#DejaVuSans-Bold-48"/>
      </g>
     </g>
    </g>
    <g id="xtick_4">
     <g id="line2d_6">
      <g>
       <use style="stroke:#000000;stroke-width:0.8;" x="1161.545332" xlink:href="#md4caf3aa7e" y="1575"/>
      </g>
     </g>
     <g id="text_4">
      <!-- 2 -->
      <g transform="translate(1158.066426 1589.598438)scale(0.1 -0.1)">
       <use xlink:href="#DejaVuSans-Bold-50"/>
      </g>
     </g>
    </g>
    <g id="xtick_5">
     <g id="line2d_7">
      <g>
       <use style="stroke:#000000;stroke-width:0.8;" x="1432.289916" xlink:href="#md4caf3aa7e" y="1575"/>
      </g>
     </g>
     <g id="text_5">
      <!-- 4 -->
      <g transform="translate(1428.811009 1589.598438)scale(0.1 -0.1)">
       <use xlink:href="#DejaVuSans-Bold-52"/>
      </g>
     </g>
    </g>
    <g id="text_6">
     <!-- Activity rating -->
     <defs>
      <path d="M 34.1875 63.1875 
L 20.796875 26.90625 
L 47.609375 26.90625 
z
M 28.609375 72.90625 
L 39.796875 72.90625 
L 67.578125 0 
L 57.328125 0 
L 50.6875 18.703125 
L 17.828125 18.703125 
L 11.1875 0 
L 0.78125 0 
z
" id="DejaVuSans-65"/>
      <path d="M 48.78125 52.59375 
L 48.78125 44.1875 
Q 44.96875 46.296875 41.140625 47.34375 
Q 37.3125 48.390625 33.40625 48.390625 
Q 24.65625 48.390625 19.8125 42.84375 
Q 14.984375 37.3125 14.984375 27.296875 
Q 14.984375 17.28125 19.8125 11.734375 
Q 24.65625 6.203125 33.40625 6.203125 
Q 37.3125 6.203125 41.140625 7.25 
Q 44.96875 8.296875 48.78125 10.40625 
L 48.78125 2.09375 
Q 45.015625 0.34375 40.984375 -0.53125 
Q 36.96875 -1.421875 32.421875 -1.421875 
Q 20.0625 -1.421875 12.78125 6.34375 
Q 5.515625 14.109375 5.515625 27.296875 
Q 5.515625 40.671875 12.859375 48.328125 
Q 20.21875 56 33.015625 56 
Q 37.15625 56 41.109375 55.140625 
Q 45.0625 54.296875 48.78125 52.59375 
z
" id="DejaVuSans-99"/>
      <path d="M 18.3125 70.21875 
L 18.3125 54.6875 
L 36.8125 54.6875 
L 36.8125 47.703125 
L 18.3125 47.703125 
L 18.3125 18.015625 
Q 18.3125 11.328125 20.140625 9.421875 
Q 21.96875 7.515625 27.59375 7.515625 
L 36.8125 7.515625 
L 36.8125 0 
L 27.59375 0 
Q 17.1875 0 13.234375 3.875 
Q 9.28125 7.765625 9.28125 18.015625 
L 9.28125 47.703125 
L 2.6875 47.703125 
L 2.6875 54.6875 
L 9.28125 54.6875 
L 9.28125 70.21875 
z
" id="DejaVuSans-116"/>
      <path d="M 9.421875 54.6875 
L 18.40625 54.6875 
L 18.40625 0 
L 9.421875 0 
z
M 9.421875 75.984375 
L 18.40625 75.984375 
L 18.40625 64.59375 
L 9.421875 64.59375 
z
" id="DejaVuSans-105"/>
      <path d="M 2.984375 54.6875 
L 12.5 54.6875 
L 29.59375 8.796875 
L 46.6875 54.6875 
L 56.203125 54.6875 
L 35.6875 0 
L 23.484375 0 
z
" id="DejaVuSans-118"/>
      <path d="M 32.171875 -5.078125 
Q 28.375 -14.84375 24.75 -17.8125 
Q 21.140625 -20.796875 15.09375 -20.796875 
L 7.90625 -20.796875 
L 7.90625 -13.28125 
L 13.1875 -13.28125 
Q 16.890625 -13.28125 18.9375 -11.515625 
Q 21 -9.765625 23.484375 -3.21875 
L 25.09375 0.875 
L 2.984375 54.6875 
L 12.5 54.6875 
L 29.59375 11.921875 
L 46.6875 54.6875 
L 56.203125 54.6875 
z
" id="DejaVuSans-121"/>
      <path id="DejaVuSans-32"/>
      <path d="M 41.109375 46.296875 
Q 39.59375 47.171875 37.8125 47.578125 
Q 36.03125 48 33.890625 48 
Q 26.265625 48 22.1875 43.046875 
Q 18.109375 38.09375 18.109375 28.8125 
L 18.109375 0 
L 9.078125 0 
L 9.078125 54.6875 
L 18.109375 54.6875 
L 18.109375 46.1875 
Q 20.953125 51.171875 25.484375 53.578125 
Q 30.03125 56 36.53125 56 
Q 37.453125 56 38.578125 55.875 
Q 39.703125 55.765625 41.0625 55.515625 
z
" id="DejaVuSans-114"/>
      <path d="M 34.28125 27.484375 
Q 23.390625 27.484375 19.1875 25 
Q 14.984375 22.515625 14.984375 16.5 
Q 14.984375 11.71875 18.140625 8.90625 
Q 21.296875 6.109375 26.703125 6.109375 
Q 34.1875 6.109375 38.703125 11.40625 
Q 43.21875 16.703125 43.21875 25.484375 
L 43.21875 27.484375 
z
M 52.203125 31.203125 
L 52.203125 0 
L 43.21875 0 
L 43.21875 8.296875 
Q 40.140625 3.328125 35.546875 0.953125 
Q 30.953125 -1.421875 24.3125 -1.421875 
Q 15.921875 -1.421875 10.953125 3.296875 
Q 6 8.015625 6 15.921875 
Q 6 25.140625 12.171875 29.828125 
Q 18.359375 34.515625 30.609375 34.515625 
L 43.21875 34.515625 
L 43.21875 35.40625 
Q 43.21875 41.609375 39.140625 45 
Q 35.0625 48.390625 27.6875 48.390625 
Q 23 48.390625 18.546875 47.265625 
Q 14.109375 46.140625 10.015625 43.890625 
L 10.015625 52.203125 
Q 14.9375 54.109375 19.578125 55.046875 
Q 24.21875 56 28.609375 56 
Q 40.484375 56 46.34375 49.84375 
Q 52.203125 43.703125 52.203125 31.203125 
z
" id="DejaVuSans-97"/>
      <path d="M 54.890625 33.015625 
L 54.890625 0 
L 45.90625 0 
L 45.90625 32.71875 
Q 45.90625 40.484375 42.875 44.328125 
Q 39.84375 48.1875 33.796875 48.1875 
Q 26.515625 48.1875 22.3125 43.546875 
Q 18.109375 38.921875 18.109375 30.90625 
L 18.109375 0 
L 9.078125 0 
L 9.078125 54.6875 
L 18.109375 54.6875 
L 18.109375 46.1875 
Q 21.34375 51.125 25.703125 53.5625 
Q 30.078125 56 35.796875 56 
Q 45.21875 56 50.046875 50.171875 
Q 54.890625 44.34375 54.890625 33.015625 
z
" id="DejaVuSans-110"/>
      <path d="M 45.40625 27.984375 
Q 45.40625 37.75 41.375 43.109375 
Q 37.359375 48.484375 30.078125 48.484375 
Q 22.859375 48.484375 18.828125 43.109375 
Q 14.796875 37.75 14.796875 27.984375 
Q 14.796875 18.265625 18.828125 12.890625 
Q 22.859375 7.515625 30.078125 7.515625 
Q 37.359375 7.515625 41.375 12.890625 
Q 45.40625 18.265625 45.40625 27.984375 
z
M 54.390625 6.78125 
Q 54.390625 -7.171875 48.1875 -13.984375 
Q 42 -20.796875 29.203125 -20.796875 
Q 24.46875 -20.796875 20.265625 -20.09375 
Q 16.0625 -19.390625 12.109375 -17.921875 
L 12.109375 -9.1875 
Q 16.0625 -11.328125 19.921875 -12.34375 
Q 23.78125 -13.375 27.78125 -13.375 
Q 36.625 -13.375 41.015625 -8.765625 
Q 45.40625 -4.15625 45.40625 5.171875 
L 45.40625 9.625 
Q 42.625 4.78125 38.28125 2.390625 
Q 33.9375 0 27.875 0 
Q 17.828125 0 11.671875 7.65625 
Q 5.515625 15.328125 5.515625 27.984375 
Q 5.515625 40.671875 11.671875 48.328125 
Q 17.828125 56 27.875 56 
Q 33.9375 56 38.28125 53.609375 
Q 42.625 51.21875 45.40625 46.390625 
L 45.40625 54.6875 
L 54.390625 54.6875 
z
" id="DejaVuSans-103"/>
     </defs>
     <g transform="translate(816.939844 1618.473438)scale(0.3 -0.3)">
      <use xlink:href="#DejaVuSans-65"/>
      <use x="68.392578" xlink:href="#DejaVuSans-99"/>
      <use x="123.373047" xlink:href="#DejaVuSans-116"/>
      <use x="162.582031" xlink:href="#DejaVuSans-105"/>
      <use x="190.365234" xlink:href="#DejaVuSans-118"/>
      <use x="249.544922" xlink:href="#DejaVuSans-105"/>
      <use x="277.328125" xlink:href="#DejaVuSans-116"/>
      <use x="316.537109" xlink:href="#DejaVuSans-121"/>
      <use x="375.716797" xlink:href="#DejaVuSans-32"/>
      <use x="407.503906" xlink:href="#DejaVuSans-114"/>
      <use x="448.617188" xlink:href="#DejaVuSans-97"/>
      <use x="509.896484" xlink:href="#DejaVuSans-116"/>
      <use x="549.105469" xlink:href="#DejaVuSans-105"/>
      <use x="576.888672" xlink:href="#DejaVuSans-110"/>
      <use x="640.267578" xlink:href="#DejaVuSans-103"/>
     </g>
    </g>
   </g>
   <g id="matplotlib.axis_2">
    <g id="ytick_1">
     <g id="line2d_8">
      <defs>
       <path d="M 0 0 
L -3.5 0 
" id="m8403cb0ec1" style="stroke:#000000;stroke-width:0.8;"/>
      </defs>
      <g>
       <use style="stroke:#000000;stroke-width:0.8;" x="225" xlink:href="#m8403cb0ec1" y="1430.267885"/>
      </g>
     </g>
     <g id="text_7">
      <!-- 0.6 -->
      <defs>
       <path d="M 10.203125 18.890625 
L 27.78125 18.890625 
L 27.78125 0 
L 10.203125 0 
z
" id="DejaVuSans-Bold-46"/>
       <path d="M 36.1875 35.984375 
Q 31.25 35.984375 28.78125 32.78125 
Q 26.3125 29.59375 26.3125 23.1875 
Q 26.3125 16.796875 28.78125 13.59375 
Q 31.25 10.40625 36.1875 10.40625 
Q 41.15625 10.40625 43.625 13.59375 
Q 46.09375 16.796875 46.09375 23.1875 
Q 46.09375 29.59375 43.625 32.78125 
Q 41.15625 35.984375 36.1875 35.984375 
z
M 59.421875 71 
L 59.421875 57.515625 
Q 54.78125 59.71875 50.671875 60.765625 
Q 46.578125 61.8125 42.671875 61.8125 
Q 34.28125 61.8125 29.59375 57.140625 
Q 24.90625 52.484375 24.125 43.3125 
Q 27.34375 45.703125 31.09375 46.890625 
Q 34.859375 48.09375 39.3125 48.09375 
Q 50.484375 48.09375 57.34375 41.546875 
Q 64.203125 35.015625 64.203125 24.421875 
Q 64.203125 12.703125 56.53125 5.640625 
Q 48.875 -1.421875 35.984375 -1.421875 
Q 21.78125 -1.421875 13.984375 8.171875 
Q 6.203125 17.78125 6.203125 35.40625 
Q 6.203125 53.46875 15.3125 63.796875 
Q 24.421875 74.125 40.28125 74.125 
Q 45.3125 74.125 50.046875 73.34375 
Q 54.78125 72.5625 59.421875 71 
z
" id="DejaVuSans-Bold-54"/>
      </defs>
      <g transform="translate(200.285937 1434.067104)scale(0.1 -0.1)">
       <use xlink:href="#DejaVuSans-Bold-48"/>
       <use x="69.580078" xlink:href="#DejaVuSans-Bold-46"/>
       <use x="107.568359" xlink:href="#DejaVuSans-Bold-54"/>
      </g>
     </g>
    </g>
    <g id="ytick_2">
     <g id="line2d_9">
      <g>
       <use style="stroke:#000000;stroke-width:0.8;" x="225" xlink:href="#m8403cb0ec1" y="1274.925293"/>
      </g>
     </g>
     <g id="text_8">
      <!-- 0.8 -->
      <defs>
       <path d="M 34.8125 32.625 
Q 29.546875 32.625 26.703125 29.734375 
Q 23.875 26.859375 23.875 21.484375 
Q 23.875 16.109375 26.703125 13.25 
Q 29.546875 10.40625 34.8125 10.40625 
Q 40.046875 10.40625 42.828125 13.25 
Q 45.609375 16.109375 45.609375 21.484375 
Q 45.609375 26.90625 42.828125 29.765625 
Q 40.046875 32.625 34.8125 32.625 
z
M 21.09375 38.8125 
Q 14.453125 40.828125 11.078125 44.96875 
Q 7.71875 49.125 7.71875 55.328125 
Q 7.71875 64.546875 14.59375 69.375 
Q 21.484375 74.21875 34.8125 74.21875 
Q 48.046875 74.21875 54.921875 69.40625 
Q 61.8125 64.59375 61.8125 55.328125 
Q 61.8125 49.125 58.421875 44.96875 
Q 55.03125 40.828125 48.390625 38.8125 
Q 55.8125 36.765625 59.59375 32.15625 
Q 63.375 27.546875 63.375 20.515625 
Q 63.375 9.671875 56.171875 4.125 
Q 48.96875 -1.421875 34.8125 -1.421875 
Q 20.609375 -1.421875 13.359375 4.125 
Q 6.109375 9.671875 6.109375 20.515625 
Q 6.109375 27.546875 9.890625 32.15625 
Q 13.671875 36.765625 21.09375 38.8125 
z
M 25.484375 53.421875 
Q 25.484375 49.078125 27.90625 46.734375 
Q 30.328125 44.390625 34.8125 44.390625 
Q 39.203125 44.390625 41.59375 46.734375 
Q 44 49.078125 44 53.421875 
Q 44 57.765625 41.59375 60.078125 
Q 39.203125 62.40625 34.8125 62.40625 
Q 30.328125 62.40625 27.90625 60.0625 
Q 25.484375 57.71875 25.484375 53.421875 
z
" id="DejaVuSans-Bold-56"/>
      </defs>
      <g transform="translate(200.285937 1278.724512)scale(0.1 -0.1)">
       <use xlink:href="#DejaVuSans-Bold-48"/>
       <use x="69.580078" xlink:href="#DejaVuSans-Bold-46"/>
       <use x="107.568359" xlink:href="#DejaVuSans-Bold-56"/>
      </g>
     </g>
    </g>
    <g id="ytick_3">
     <g id="line2d_10">
      <g>
       <use style="stroke:#000000;stroke-width:0.8;" x="225" xlink:href="#m8403cb0ec1" y="1119.582702"/>
      </g>
     </g>
     <g id="text_9">
      <!-- 1.0 -->
      <defs>
       <path d="M 11.71875 12.984375 
L 28.328125 12.984375 
L 28.328125 60.109375 
L 11.28125 56.59375 
L 11.28125 69.390625 
L 28.21875 72.90625 
L 46.09375 72.90625 
L 46.09375 12.984375 
L 62.703125 12.984375 
L 62.703125 0 
L 11.71875 0 
z
" id="DejaVuSans-Bold-49"/>
      </defs>
      <g transform="translate(200.285937 1123.381921)scale(0.1 -0.1)">
       <use xlink:href="#DejaVuSans-Bold-49"/>
       <use x="69.580078" xlink:href="#DejaVuSans-Bold-46"/>
       <use x="107.568359" xlink:href="#DejaVuSans-Bold-48"/>
      </g>
     </g>
    </g>
    <g id="ytick_4">
     <g id="line2d_11">
      <g>
       <use style="stroke:#000000;stroke-width:0.8;" x="225" xlink:href="#m8403cb0ec1" y="964.240111"/>
      </g>
     </g>
     <g id="text_10">
      <!-- 1.2 -->
      <g transform="translate(200.285937 968.039329)scale(0.1 -0.1)">
       <use xlink:href="#DejaVuSans-Bold-49"/>
       <use x="69.580078" xlink:href="#DejaVuSans-Bold-46"/>
       <use x="107.568359" xlink:href="#DejaVuSans-Bold-50"/>
      </g>
     </g>
    </g>
    <g id="ytick_5">
     <g id="line2d_12">
      <g>
       <use style="stroke:#000000;stroke-width:0.8;" x="225" xlink:href="#m8403cb0ec1" y="808.897519"/>
      </g>
     </g>
     <g id="text_11">
      <!-- 1.4 -->
      <g transform="translate(200.285937 812.696738)scale(0.1 -0.1)">
       <use xlink:href="#DejaVuSans-Bold-49"/>
       <use x="69.580078" xlink:href="#DejaVuSans-Bold-46"/>
       <use x="107.568359" xlink:href="#DejaVuSans-Bold-52"/>
      </g>
     </g>
    </g>
    <g id="ytick_6">
     <g id="line2d_13">
      <g>
       <use style="stroke:#000000;stroke-width:0.8;" x="225" xlink:href="#m8403cb0ec1" y="653.554928"/>
      </g>
     </g>
     <g id="text_12">
      <!-- 1.6 -->
      <g transform="translate(200.285937 657.354146)scale(0.1 -0.1)">
       <use xlink:href="#DejaVuSans-Bold-49"/>
       <use x="69.580078" xlink:href="#DejaVuSans-Bold-46"/>
       <use x="107.568359" xlink:href="#DejaVuSans-Bold-54"/>
      </g>
     </g>
    </g>
    <g id="ytick_7">
     <g id="line2d_14">
      <g>
       <use style="stroke:#000000;stroke-width:0.8;" x="225" xlink:href="#m8403cb0ec1" y="498.212336"/>
      </g>
     </g>
     <g id="text_13">
      <!-- 1.8 -->
      <g transform="translate(200.285937 502.011555)scale(0.1 -0.1)">
       <use xlink:href="#DejaVuSans-Bold-49"/>
       <use x="69.580078" xlink:href="#DejaVuSans-Bold-46"/>
       <use x="107.568359" xlink:href="#DejaVuSans-Bold-56"/>
      </g>
     </g>
    </g>
    <g id="ytick_8">
     <g id="line2d_15">
      <g>
       <use style="stroke:#000000;stroke-width:0.8;" x="225" xlink:href="#m8403cb0ec1" y="342.869745"/>
      </g>
     </g>
     <g id="text_14">
      <!-- 2.0 -->
      <g transform="translate(200.285937 346.668964)scale(0.1 -0.1)">
       <use xlink:href="#DejaVuSans-Bold-50"/>
       <use x="69.580078" xlink:href="#DejaVuSans-Bold-46"/>
       <use x="107.568359" xlink:href="#DejaVuSans-Bold-48"/>
      </g>
     </g>
    </g>
    <g id="text_15">
     <!-- Fold change -->
     <defs>
      <path d="M 9.8125 72.90625 
L 51.703125 72.90625 
L 51.703125 64.59375 
L 19.671875 64.59375 
L 19.671875 43.109375 
L 48.578125 43.109375 
L 48.578125 34.8125 
L 19.671875 34.8125 
L 19.671875 0 
L 9.8125 0 
z
" id="DejaVuSans-70"/>
      <path d="M 30.609375 48.390625 
Q 23.390625 48.390625 19.1875 42.75 
Q 14.984375 37.109375 14.984375 27.296875 
Q 14.984375 17.484375 19.15625 11.84375 
Q 23.34375 6.203125 30.609375 6.203125 
Q 37.796875 6.203125 41.984375 11.859375 
Q 46.1875 17.53125 46.1875 27.296875 
Q 46.1875 37.015625 41.984375 42.703125 
Q 37.796875 48.390625 30.609375 48.390625 
z
M 30.609375 56 
Q 42.328125 56 49.015625 48.375 
Q 55.71875 40.765625 55.71875 27.296875 
Q 55.71875 13.875 49.015625 6.21875 
Q 42.328125 -1.421875 30.609375 -1.421875 
Q 18.84375 -1.421875 12.171875 6.21875 
Q 5.515625 13.875 5.515625 27.296875 
Q 5.515625 40.765625 12.171875 48.375 
Q 18.84375 56 30.609375 56 
z
" id="DejaVuSans-111"/>
      <path d="M 9.421875 75.984375 
L 18.40625 75.984375 
L 18.40625 0 
L 9.421875 0 
z
" id="DejaVuSans-108"/>
      <path d="M 45.40625 46.390625 
L 45.40625 75.984375 
L 54.390625 75.984375 
L 54.390625 0 
L 45.40625 0 
L 45.40625 8.203125 
Q 42.578125 3.328125 38.25 0.953125 
Q 33.9375 -1.421875 27.875 -1.421875 
Q 17.96875 -1.421875 11.734375 6.484375 
Q 5.515625 14.40625 5.515625 27.296875 
Q 5.515625 40.1875 11.734375 48.09375 
Q 17.96875 56 27.875 56 
Q 33.9375 56 38.25 53.625 
Q 42.578125 51.265625 45.40625 46.390625 
z
M 14.796875 27.296875 
Q 14.796875 17.390625 18.875 11.75 
Q 22.953125 6.109375 30.078125 6.109375 
Q 37.203125 6.109375 41.296875 11.75 
Q 45.40625 17.390625 45.40625 27.296875 
Q 45.40625 37.203125 41.296875 42.84375 
Q 37.203125 48.484375 30.078125 48.484375 
Q 22.953125 48.484375 18.875 42.84375 
Q 14.796875 37.203125 14.796875 27.296875 
z
" id="DejaVuSans-100"/>
      <path d="M 54.890625 33.015625 
L 54.890625 0 
L 45.90625 0 
L 45.90625 32.71875 
Q 45.90625 40.484375 42.875 44.328125 
Q 39.84375 48.1875 33.796875 48.1875 
Q 26.515625 48.1875 22.3125 43.546875 
Q 18.109375 38.921875 18.109375 30.90625 
L 18.109375 0 
L 9.078125 0 
L 9.078125 75.984375 
L 18.109375 75.984375 
L 18.109375 46.1875 
Q 21.34375 51.125 25.703125 53.5625 
Q 30.078125 56 35.796875 56 
Q 45.21875 56 50.046875 50.171875 
Q 54.890625 44.34375 54.890625 33.015625 
z
" id="DejaVuSans-104"/>
      <path d="M 56.203125 29.59375 
L 56.203125 25.203125 
L 14.890625 25.203125 
Q 15.484375 15.921875 20.484375 11.0625 
Q 25.484375 6.203125 34.421875 6.203125 
Q 39.59375 6.203125 44.453125 7.46875 
Q 49.3125 8.734375 54.109375 11.28125 
L 54.109375 2.78125 
Q 49.265625 0.734375 44.1875 -0.34375 
Q 39.109375 -1.421875 33.890625 -1.421875 
Q 20.796875 -1.421875 13.15625 6.1875 
Q 5.515625 13.8125 5.515625 26.8125 
Q 5.515625 40.234375 12.765625 48.109375 
Q 20.015625 56 32.328125 56 
Q 43.359375 56 49.78125 48.890625 
Q 56.203125 41.796875 56.203125 29.59375 
z
M 47.21875 32.234375 
Q 47.125 39.59375 43.09375 43.984375 
Q 39.0625 48.390625 32.421875 48.390625 
Q 24.90625 48.390625 20.390625 44.140625 
Q 15.875 39.890625 15.1875 32.171875 
z
" id="DejaVuSans-101"/>
     </defs>
     <g transform="translate(190.046875 986.960156)rotate(-90)scale(0.3 -0.3)">
      <use xlink:href="#DejaVuSans-70"/>
      <use x="57.472656" xlink:href="#DejaVuSans-111"/>
      <use x="118.654297" xlink:href="#DejaVuSans-108"/>
      <use x="146.4375" xlink:href="#DejaVuSans-100"/>
      <use x="209.914062" xlink:href="#DejaVuSans-32"/>
      <use x="241.701172" xlink:href="#DejaVuSans-99"/>
      <use x="296.681641" xlink:href="#DejaVuSans-104"/>
      <use x="360.060547" xlink:href="#DejaVuSans-97"/>
      <use x="421.339844" xlink:href="#DejaVuSans-110"/>
      <use x="484.71875" xlink:href="#DejaVuSans-103"/>
      <use x="548.195312" xlink:href="#DejaVuSans-101"/>
     </g>
    </g>
   </g>
   <g id="patch_3">
    <path d="M 225 1575 
L 225 216 
" style="fill:none;stroke:#000000;stroke-linecap:square;stroke-linejoin:miter;stroke-width:0.8;"/>
   </g>
   <g id="patch_4">
    <path d="M 1620 1575 
L 1620 216 
" style="fill:none;stroke:#000000;stroke-linecap:square;stroke-linejoin:miter;stroke-width:0.8;"/>
   </g>
   <g id="patch_5">
    <path d="M 225 1575 
L 1620 1575 
" style="fill:none;stroke:#000000;stroke-linecap:square;stroke-linejoin:miter;stroke-width:0.8;"/>
   </g>
   <g id="patch_6">
    <path d="M 225 216 
L 1620 216 
" style="fill:none;stroke:#000000;stroke-linecap:square;stroke-linejoin:miter;stroke-width:0.8;"/>
   </g>
   <g id="text_16">
    <g id="patch_7">
     <path d="M 1240.626179 1020.945819 
L 1352.765242 1020.945819 
L 1352.765242 998.328632 
L 1240.626179 998.328632 
z
" style="fill:#ffffff;stroke:#ffffff;stroke-linejoin:miter;"/>
    </g>
    <!-- Vsir Bladder -->
    <defs>
     <path d="M 0.484375 72.90625 
L 19.390625 72.90625 
L 38.71875 19.09375 
L 58.015625 72.90625 
L 76.90625 72.90625 
L 49.90625 0 
L 27.484375 0 
z
" id="DejaVuSans-Bold-86"/>
     <path d="M 51.125 52.984375 
L 51.125 39.703125 
Q 45.515625 42.046875 40.28125 43.21875 
Q 35.0625 44.390625 30.421875 44.390625 
Q 25.4375 44.390625 23.015625 43.140625 
Q 20.609375 41.890625 20.609375 39.3125 
Q 20.609375 37.203125 22.4375 36.078125 
Q 24.265625 34.96875 29 34.421875 
L 32.078125 33.984375 
Q 45.515625 32.28125 50.140625 28.375 
Q 54.78125 24.46875 54.78125 16.109375 
Q 54.78125 7.375 48.328125 2.96875 
Q 41.890625 -1.421875 29.109375 -1.421875 
Q 23.6875 -1.421875 17.890625 -0.5625 
Q 12.109375 0.296875 6 2 
L 6 15.28125 
Q 11.234375 12.75 16.71875 11.46875 
Q 22.21875 10.203125 27.875 10.203125 
Q 33.015625 10.203125 35.59375 11.609375 
Q 38.1875 13.03125 38.1875 15.828125 
Q 38.1875 18.171875 36.40625 19.3125 
Q 34.625 20.453125 29.296875 21.09375 
L 26.21875 21.484375 
Q 14.546875 22.953125 9.859375 26.90625 
Q 5.171875 30.859375 5.171875 38.921875 
Q 5.171875 47.609375 11.125 51.796875 
Q 17.09375 56 29.390625 56 
Q 34.234375 56 39.546875 55.265625 
Q 44.875 54.546875 51.125 52.984375 
z
" id="DejaVuSans-Bold-115"/>
     <path d="M 8.40625 54.6875 
L 25.875 54.6875 
L 25.875 0 
L 8.40625 0 
z
M 8.40625 75.984375 
L 25.875 75.984375 
L 25.875 61.71875 
L 8.40625 61.71875 
z
" id="DejaVuSans-Bold-105"/>
     <path d="M 49.03125 39.796875 
Q 46.734375 40.875 44.453125 41.375 
Q 42.1875 41.890625 39.890625 41.890625 
Q 33.15625 41.890625 29.515625 37.5625 
Q 25.875 33.25 25.875 25.203125 
L 25.875 0 
L 8.40625 0 
L 8.40625 54.6875 
L 25.875 54.6875 
L 25.875 45.703125 
Q 29.25 51.078125 33.609375 53.53125 
Q 37.984375 56 44.09375 56 
Q 44.96875 56 45.984375 55.921875 
Q 47.015625 55.859375 48.96875 55.609375 
z
" id="DejaVuSans-Bold-114"/>
     <path id="DejaVuSans-Bold-32"/>
     <path d="M 38.375 44.671875 
Q 42.828125 44.671875 45.109375 46.625 
Q 47.40625 48.578125 47.40625 52.390625 
Q 47.40625 56.15625 45.109375 58.125 
Q 42.828125 60.109375 38.375 60.109375 
L 27.984375 60.109375 
L 27.984375 44.671875 
z
M 39.015625 12.796875 
Q 44.671875 12.796875 47.53125 15.1875 
Q 50.390625 17.578125 50.390625 22.40625 
Q 50.390625 27.15625 47.5625 29.515625 
Q 44.734375 31.890625 39.015625 31.890625 
L 27.984375 31.890625 
L 27.984375 12.796875 
z
M 56.5 39.015625 
Q 62.546875 37.25 65.859375 32.515625 
Q 69.1875 27.78125 69.1875 20.90625 
Q 69.1875 10.359375 62.0625 5.171875 
Q 54.9375 0 40.375 0 
L 9.1875 0 
L 9.1875 72.90625 
L 37.40625 72.90625 
Q 52.59375 72.90625 59.40625 68.3125 
Q 66.21875 63.71875 66.21875 53.609375 
Q 66.21875 48.296875 63.71875 44.5625 
Q 61.234375 40.828125 56.5 39.015625 
z
" id="DejaVuSans-Bold-66"/>
     <path d="M 8.40625 75.984375 
L 25.875 75.984375 
L 25.875 0 
L 8.40625 0 
z
" id="DejaVuSans-Bold-108"/>
     <path d="M 32.90625 24.609375 
Q 27.4375 24.609375 24.671875 22.75 
Q 21.921875 20.90625 21.921875 17.28125 
Q 21.921875 13.96875 24.140625 12.078125 
Q 26.375 10.203125 30.328125 10.203125 
Q 35.25 10.203125 38.625 13.734375 
Q 42 17.28125 42 22.609375 
L 42 24.609375 
z
M 59.625 31.203125 
L 59.625 0 
L 42 0 
L 42 8.109375 
Q 38.484375 3.125 34.078125 0.84375 
Q 29.6875 -1.421875 23.390625 -1.421875 
Q 14.890625 -1.421875 9.59375 3.53125 
Q 4.296875 8.5 4.296875 16.40625 
Q 4.296875 26.03125 10.90625 30.515625 
Q 17.53125 35.015625 31.6875 35.015625 
L 42 35.015625 
L 42 36.375 
Q 42 40.53125 38.71875 42.453125 
Q 35.453125 44.390625 28.515625 44.390625 
Q 22.90625 44.390625 18.0625 43.265625 
Q 13.234375 42.140625 9.078125 39.890625 
L 9.078125 53.21875 
Q 14.703125 54.59375 20.359375 55.296875 
Q 26.03125 56 31.6875 56 
Q 46.484375 56 53.046875 50.171875 
Q 59.625 44.34375 59.625 31.203125 
z
" id="DejaVuSans-Bold-97"/>
     <path d="M 45.609375 46.6875 
L 45.609375 75.984375 
L 63.1875 75.984375 
L 63.1875 0 
L 45.609375 0 
L 45.609375 7.90625 
Q 42 3.078125 37.640625 0.828125 
Q 33.296875 -1.421875 27.59375 -1.421875 
Q 17.484375 -1.421875 10.984375 6.609375 
Q 4.5 14.65625 4.5 27.296875 
Q 4.5 39.9375 10.984375 47.96875 
Q 17.484375 56 27.59375 56 
Q 33.25 56 37.625 53.734375 
Q 42 51.46875 45.609375 46.6875 
z
M 34.078125 11.28125 
Q 39.703125 11.28125 42.65625 15.375 
Q 45.609375 19.484375 45.609375 27.296875 
Q 45.609375 35.109375 42.65625 39.203125 
Q 39.703125 43.3125 34.078125 43.3125 
Q 28.515625 43.3125 25.5625 39.203125 
Q 22.609375 35.109375 22.609375 27.296875 
Q 22.609375 19.484375 25.5625 15.375 
Q 28.515625 11.28125 34.078125 11.28125 
z
" id="DejaVuSans-Bold-100"/>
     <path d="M 62.984375 27.484375 
L 62.984375 22.515625 
L 22.125 22.515625 
Q 22.75 16.359375 26.5625 13.28125 
Q 30.375 10.203125 37.203125 10.203125 
Q 42.71875 10.203125 48.5 11.84375 
Q 54.296875 13.484375 60.40625 16.796875 
L 60.40625 3.328125 
Q 54.203125 0.984375 48 -0.21875 
Q 41.796875 -1.421875 35.59375 -1.421875 
Q 20.75 -1.421875 12.515625 6.125 
Q 4.296875 13.671875 4.296875 27.296875 
Q 4.296875 40.671875 12.375 48.328125 
Q 20.453125 56 34.625 56 
Q 47.515625 56 55.25 48.234375 
Q 62.984375 40.484375 62.984375 27.484375 
z
M 45.015625 33.296875 
Q 45.015625 38.28125 42.109375 41.328125 
Q 39.203125 44.390625 34.515625 44.390625 
Q 29.4375 44.390625 26.265625 41.53125 
Q 23.09375 38.671875 22.3125 33.296875 
z
" id="DejaVuSans-Bold-101"/>
    </defs>
    <g transform="translate(1244.676179 1013.776288)scale(0.15 -0.15)">
     <use xlink:href="#DejaVuSans-Bold-86"/>
     <use x="77.392578" xlink:href="#DejaVuSans-Bold-115"/>
     <use x="136.914062" xlink:href="#DejaVuSans-Bold-105"/>
     <use x="171.191406" xlink:href="#DejaVuSans-Bold-114"/>
     <use x="220.507812" xlink:href="#DejaVuSans-Bold-32"/>
     <use x="255.322266" xlink:href="#DejaVuSans-Bold-66"/>
     <use x="331.542969" xlink:href="#DejaVuSans-Bold-108"/>
     <use x="365.820312" xlink:href="#DejaVuSans-Bold-97"/>
     <use x="433.300781" xlink:href="#DejaVuSans-Bold-100"/>
     <use x="504.882812" xlink:href="#DejaVuSans-Bold-100"/>
     <use x="576.464844" xlink:href="#DejaVuSans-Bold-101"/>
     <use x="644.287109" xlink:href="#DejaVuSans-Bold-114"/>
    </g>
   </g>
   <g id="text_17">
    <g id="patch_8">
     <path d="M 1142.411932 1200.84521 
L 1310.104901 1200.84521 
L 1310.104901 1178.110835 
L 1142.411932 1178.110835 
z
" style="fill:#ffffff;stroke:#ffffff;stroke-linejoin:miter;"/>
    </g>
    <!-- Vsir Olfactory Bulb -->
    <defs>
     <path d="M 42.484375 60.59375 
Q 33.890625 60.59375 29.15625 54.25 
Q 24.421875 47.90625 24.421875 36.375 
Q 24.421875 24.90625 29.15625 18.546875 
Q 33.890625 12.203125 42.484375 12.203125 
Q 51.125 12.203125 55.859375 18.546875 
Q 60.59375 24.90625 60.59375 36.375 
Q 60.59375 47.90625 55.859375 54.25 
Q 51.125 60.59375 42.484375 60.59375 
z
M 42.484375 74.21875 
Q 60.0625 74.21875 70.015625 64.15625 
Q 79.984375 54.109375 79.984375 36.375 
Q 79.984375 18.703125 70.015625 8.640625 
Q 60.0625 -1.421875 42.484375 -1.421875 
Q 24.953125 -1.421875 14.96875 8.640625 
Q 4.984375 18.703125 4.984375 36.375 
Q 4.984375 54.109375 14.96875 64.15625 
Q 24.953125 74.21875 42.484375 74.21875 
z
" id="DejaVuSans-Bold-79"/>
     <path d="M 44.390625 75.984375 
L 44.390625 64.5 
L 34.71875 64.5 
Q 31 64.5 29.53125 63.15625 
Q 28.078125 61.8125 28.078125 58.5 
L 28.078125 54.6875 
L 43.015625 54.6875 
L 43.015625 42.1875 
L 28.078125 42.1875 
L 28.078125 0 
L 10.59375 0 
L 10.59375 42.1875 
L 1.90625 42.1875 
L 1.90625 54.6875 
L 10.59375 54.6875 
L 10.59375 58.5 
Q 10.59375 67.4375 15.578125 71.703125 
Q 20.5625 75.984375 31 75.984375 
z
" id="DejaVuSans-Bold-102"/>
     <path d="M 52.59375 52.984375 
L 52.59375 38.71875 
Q 49.03125 41.15625 45.4375 42.328125 
Q 41.84375 43.5 37.984375 43.5 
Q 30.671875 43.5 26.59375 39.234375 
Q 22.515625 34.96875 22.515625 27.296875 
Q 22.515625 19.625 26.59375 15.34375 
Q 30.671875 11.078125 37.984375 11.078125 
Q 42.09375 11.078125 45.78125 12.296875 
Q 49.46875 13.53125 52.59375 15.921875 
L 52.59375 1.609375 
Q 48.484375 0.09375 44.265625 -0.65625 
Q 40.046875 -1.421875 35.796875 -1.421875 
Q 21 -1.421875 12.640625 6.171875 
Q 4.296875 13.765625 4.296875 27.296875 
Q 4.296875 40.828125 12.640625 48.40625 
Q 21 56 35.796875 56 
Q 40.09375 56 44.265625 55.25 
Q 48.4375 54.5 52.59375 52.984375 
z
" id="DejaVuSans-Bold-99"/>
     <path d="M 27.484375 70.21875 
L 27.484375 54.6875 
L 45.515625 54.6875 
L 45.515625 42.1875 
L 27.484375 42.1875 
L 27.484375 19 
Q 27.484375 15.1875 29 13.84375 
Q 30.515625 12.5 35.015625 12.5 
L 44 12.5 
L 44 0 
L 29 0 
Q 18.65625 0 14.328125 4.3125 
Q 10.015625 8.640625 10.015625 19 
L 10.015625 42.1875 
L 1.3125 42.1875 
L 1.3125 54.6875 
L 10.015625 54.6875 
L 10.015625 70.21875 
z
" id="DejaVuSans-Bold-116"/>
     <path d="M 34.421875 43.5 
Q 28.609375 43.5 25.5625 39.328125 
Q 22.515625 35.15625 22.515625 27.296875 
Q 22.515625 19.4375 25.5625 15.25 
Q 28.609375 11.078125 34.421875 11.078125 
Q 40.140625 11.078125 43.15625 15.25 
Q 46.1875 19.4375 46.1875 27.296875 
Q 46.1875 35.15625 43.15625 39.328125 
Q 40.140625 43.5 34.421875 43.5 
z
M 34.421875 56 
Q 48.53125 56 56.46875 48.375 
Q 64.40625 40.765625 64.40625 27.296875 
Q 64.40625 13.8125 56.46875 6.1875 
Q 48.53125 -1.421875 34.421875 -1.421875 
Q 20.265625 -1.421875 12.28125 6.1875 
Q 4.296875 13.8125 4.296875 27.296875 
Q 4.296875 40.765625 12.28125 48.375 
Q 20.265625 56 34.421875 56 
z
" id="DejaVuSans-Bold-111"/>
     <path d="M 1.21875 54.6875 
L 18.703125 54.6875 
L 33.40625 17.578125 
L 45.90625 54.6875 
L 63.375 54.6875 
L 40.375 -5.171875 
Q 36.921875 -14.3125 32.296875 -17.9375 
Q 27.6875 -21.578125 20.125 -21.578125 
L 10.015625 -21.578125 
L 10.015625 -10.109375 
L 15.484375 -10.109375 
Q 19.921875 -10.109375 21.9375 -8.6875 
Q 23.96875 -7.28125 25.09375 -3.609375 
L 25.59375 -2.09375 
z
" id="DejaVuSans-Bold-121"/>
     <path d="M 7.8125 21.296875 
L 7.8125 54.6875 
L 25.390625 54.6875 
L 25.390625 49.21875 
Q 25.390625 44.78125 25.34375 38.0625 
Q 25.296875 31.34375 25.296875 29.109375 
Q 25.296875 22.515625 25.640625 19.609375 
Q 25.984375 16.703125 26.8125 15.375 
Q 27.875 13.671875 29.609375 12.734375 
Q 31.34375 11.8125 33.59375 11.8125 
Q 39.0625 11.8125 42.1875 16.015625 
Q 45.3125 20.21875 45.3125 27.6875 
L 45.3125 54.6875 
L 62.796875 54.6875 
L 62.796875 0 
L 45.3125 0 
L 45.3125 7.90625 
Q 41.359375 3.125 36.9375 0.84375 
Q 32.515625 -1.421875 27.203125 -1.421875 
Q 17.71875 -1.421875 12.765625 4.390625 
Q 7.8125 10.203125 7.8125 21.296875 
z
" id="DejaVuSans-Bold-117"/>
     <path d="M 37.5 11.28125 
Q 43.109375 11.28125 46.0625 15.375 
Q 49.03125 19.484375 49.03125 27.296875 
Q 49.03125 35.109375 46.0625 39.203125 
Q 43.109375 43.3125 37.5 43.3125 
Q 31.890625 43.3125 28.875 39.1875 
Q 25.875 35.0625 25.875 27.296875 
Q 25.875 19.53125 28.875 15.40625 
Q 31.890625 11.28125 37.5 11.28125 
z
M 25.875 46.6875 
Q 29.5 51.46875 33.890625 53.734375 
Q 38.28125 56 44 56 
Q 54.109375 56 60.59375 47.96875 
Q 67.09375 39.9375 67.09375 27.296875 
Q 67.09375 14.65625 60.59375 6.609375 
Q 54.109375 -1.421875 44 -1.421875 
Q 38.28125 -1.421875 33.890625 0.84375 
Q 29.5 3.125 25.875 7.90625 
L 25.875 0 
L 8.40625 0 
L 8.40625 75.984375 
L 25.875 75.984375 
z
" id="DejaVuSans-Bold-98"/>
    </defs>
    <g transform="translate(1146.461932 1193.558492)scale(0.15 -0.15)">
     <use xlink:href="#DejaVuSans-Bold-86"/>
     <use x="77.392578" xlink:href="#DejaVuSans-Bold-115"/>
     <use x="136.914062" xlink:href="#DejaVuSans-Bold-105"/>
     <use x="171.191406" xlink:href="#DejaVuSans-Bold-114"/>
     <use x="220.507812" xlink:href="#DejaVuSans-Bold-32"/>
     <use x="255.322266" xlink:href="#DejaVuSans-Bold-79"/>
     <use x="340.332031" xlink:href="#DejaVuSans-Bold-108"/>
     <use x="374.609375" xlink:href="#DejaVuSans-Bold-102"/>
     <use x="418.115234" xlink:href="#DejaVuSans-Bold-97"/>
     <use x="485.595703" xlink:href="#DejaVuSans-Bold-99"/>
     <use x="544.873047" xlink:href="#DejaVuSans-Bold-116"/>
     <use x="592.675781" xlink:href="#DejaVuSans-Bold-111"/>
     <use x="661.376953" xlink:href="#DejaVuSans-Bold-114"/>
     <use x="710.693359" xlink:href="#DejaVuSans-Bold-121"/>
     <use x="775.878906" xlink:href="#DejaVuSans-Bold-32"/>
     <use x="810.693359" xlink:href="#DejaVuSans-Bold-66"/>
     <use x="886.914062" xlink:href="#DejaVuSans-Bold-117"/>
     <use x="958.105469" xlink:href="#DejaVuSans-Bold-108"/>
     <use x="992.382812" xlink:href="#DejaVuSans-Bold-98"/>
    </g>
   </g>
   <g id="text_18">
    <g id="patch_9">
     <path d="M 1377.721793 1384.904741 
L 1515.445231 1384.904741 
L 1515.445231 1362.170366 
L 1377.721793 1362.170366 
z
" style="fill:#ffffff;stroke:#ffffff;stroke-linejoin:miter;"/>
    </g>
    <!-- Slc29a3 Kidney -->
    <defs>
     <path d="M 59.90625 70.609375 
L 59.90625 55.171875 
Q 53.90625 57.859375 48.1875 59.21875 
Q 42.484375 60.59375 37.40625 60.59375 
Q 30.671875 60.59375 27.4375 58.734375 
Q 24.21875 56.890625 24.21875 52.984375 
Q 24.21875 50.046875 26.390625 48.40625 
Q 28.5625 46.78125 34.28125 45.609375 
L 42.28125 44 
Q 54.4375 41.546875 59.5625 36.5625 
Q 64.703125 31.59375 64.703125 22.40625 
Q 64.703125 10.359375 57.546875 4.46875 
Q 50.390625 -1.421875 35.6875 -1.421875 
Q 28.765625 -1.421875 21.78125 -0.09375 
Q 14.796875 1.21875 7.8125 3.8125 
L 7.8125 19.671875 
Q 14.796875 15.96875 21.3125 14.078125 
Q 27.828125 12.203125 33.890625 12.203125 
Q 40.046875 12.203125 43.3125 14.25 
Q 46.578125 16.3125 46.578125 20.125 
Q 46.578125 23.53125 44.359375 25.390625 
Q 42.140625 27.25 35.5 28.71875 
L 28.21875 30.328125 
Q 17.28125 32.671875 12.21875 37.796875 
Q 7.171875 42.921875 7.171875 51.609375 
Q 7.171875 62.5 14.203125 68.359375 
Q 21.234375 74.21875 34.421875 74.21875 
Q 40.4375 74.21875 46.78125 73.3125 
Q 53.125 72.40625 59.90625 70.609375 
z
" id="DejaVuSans-Bold-83"/>
     <path d="M 10.015625 1.609375 
L 10.015625 15.09375 
Q 14.5 12.984375 18.59375 11.9375 
Q 22.703125 10.890625 26.703125 10.890625 
Q 35.109375 10.890625 39.796875 15.546875 
Q 44.484375 20.21875 45.3125 29.390625 
Q 42 26.953125 38.234375 25.734375 
Q 34.46875 24.515625 30.078125 24.515625 
Q 18.890625 24.515625 12.03125 31.03125 
Q 5.171875 37.546875 5.171875 48.1875 
Q 5.171875 59.96875 12.8125 67.046875 
Q 20.453125 74.125 33.296875 74.125 
Q 47.5625 74.125 55.375 64.5 
Q 63.1875 54.890625 63.1875 37.3125 
Q 63.1875 19.234375 54.046875 8.90625 
Q 44.921875 -1.421875 29 -1.421875 
Q 23.875 -1.421875 19.1875 -0.65625 
Q 14.5 0.09375 10.015625 1.609375 
z
M 33.203125 36.71875 
Q 38.140625 36.71875 40.625 39.90625 
Q 43.109375 43.109375 43.109375 49.515625 
Q 43.109375 55.859375 40.625 59.078125 
Q 38.140625 62.3125 33.203125 62.3125 
Q 28.265625 62.3125 25.78125 59.078125 
Q 23.296875 55.859375 23.296875 49.515625 
Q 23.296875 43.109375 25.78125 39.90625 
Q 28.265625 36.71875 33.203125 36.71875 
z
" id="DejaVuSans-Bold-57"/>
     <path d="M 46.578125 39.3125 
Q 53.953125 37.40625 57.78125 32.6875 
Q 61.625 27.984375 61.625 20.703125 
Q 61.625 9.859375 53.3125 4.21875 
Q 45.015625 -1.421875 29.109375 -1.421875 
Q 23.484375 -1.421875 17.84375 -0.515625 
Q 12.203125 0.390625 6.6875 2.203125 
L 6.6875 16.703125 
Q 11.96875 14.0625 17.15625 12.71875 
Q 22.359375 11.375 27.390625 11.375 
Q 34.859375 11.375 38.84375 13.953125 
Q 42.828125 16.546875 42.828125 21.390625 
Q 42.828125 26.375 38.75 28.9375 
Q 34.671875 31.5 26.703125 31.5 
L 19.1875 31.5 
L 19.1875 43.609375 
L 27.09375 43.609375 
Q 34.1875 43.609375 37.640625 45.828125 
Q 41.109375 48.046875 41.109375 52.59375 
Q 41.109375 56.78125 37.734375 59.078125 
Q 34.375 61.375 28.21875 61.375 
Q 23.6875 61.375 19.046875 60.34375 
Q 14.40625 59.328125 9.8125 57.328125 
L 9.8125 71.09375 
Q 15.375 72.65625 20.84375 73.4375 
Q 26.3125 74.21875 31.59375 74.21875 
Q 45.796875 74.21875 52.84375 69.546875 
Q 59.90625 64.890625 59.90625 55.515625 
Q 59.90625 49.125 56.53125 45.046875 
Q 53.171875 40.96875 46.578125 39.3125 
z
" id="DejaVuSans-Bold-51"/>
     <path d="M 9.1875 72.90625 
L 27.984375 72.90625 
L 27.984375 46.296875 
L 55.078125 72.90625 
L 76.90625 72.90625 
L 41.796875 38.375 
L 80.515625 0 
L 56.984375 0 
L 27.984375 28.71875 
L 27.984375 0 
L 9.1875 0 
z
" id="DejaVuSans-Bold-75"/>
     <path d="M 63.375 33.296875 
L 63.375 0 
L 45.796875 0 
L 45.796875 5.421875 
L 45.796875 25.484375 
Q 45.796875 32.5625 45.484375 35.25 
Q 45.171875 37.9375 44.390625 39.203125 
Q 43.359375 40.921875 41.59375 41.875 
Q 39.84375 42.828125 37.59375 42.828125 
Q 32.125 42.828125 29 38.59375 
Q 25.875 34.375 25.875 26.90625 
L 25.875 0 
L 8.40625 0 
L 8.40625 54.6875 
L 25.875 54.6875 
L 25.875 46.6875 
Q 29.828125 51.46875 34.265625 53.734375 
Q 38.71875 56 44.09375 56 
Q 53.5625 56 58.46875 50.1875 
Q 63.375 44.390625 63.375 33.296875 
z
" id="DejaVuSans-Bold-110"/>
    </defs>
    <g transform="translate(1381.771793 1377.618022)scale(0.15 -0.15)">
     <use xlink:href="#DejaVuSans-Bold-83"/>
     <use x="72.021484" xlink:href="#DejaVuSans-Bold-108"/>
     <use x="106.298828" xlink:href="#DejaVuSans-Bold-99"/>
     <use x="165.576172" xlink:href="#DejaVuSans-Bold-50"/>
     <use x="235.15625" xlink:href="#DejaVuSans-Bold-57"/>
     <use x="304.736328" xlink:href="#DejaVuSans-Bold-97"/>
     <use x="372.216797" xlink:href="#DejaVuSans-Bold-51"/>
     <use x="441.796875" xlink:href="#DejaVuSans-Bold-32"/>
     <use x="476.611328" xlink:href="#DejaVuSans-Bold-75"/>
     <use x="554.101562" xlink:href="#DejaVuSans-Bold-105"/>
     <use x="588.378906" xlink:href="#DejaVuSans-Bold-100"/>
     <use x="659.960938" xlink:href="#DejaVuSans-Bold-110"/>
     <use x="731.152344" xlink:href="#DejaVuSans-Bold-101"/>
     <use x="798.974609" xlink:href="#DejaVuSans-Bold-121"/>
    </g>
   </g>
   <g id="text_19">
    <g id="patch_10">
     <path d="M 1111.674863 991.727191 
L 1287.524082 991.727191 
L 1287.524082 969.110003 
L 1111.674863 969.110003 
z
" style="fill:#ffffff;stroke:#ffffff;stroke-linejoin:miter;"/>
    </g>
    <!-- Slc29a3 Cerebellum -->
    <defs>
     <path d="M 67 4 
Q 61.8125 1.3125 56.203125 -0.046875 
Q 50.59375 -1.421875 44.484375 -1.421875 
Q 26.265625 -1.421875 15.625 8.765625 
Q 4.984375 18.953125 4.984375 36.375 
Q 4.984375 53.859375 15.625 64.03125 
Q 26.265625 74.21875 44.484375 74.21875 
Q 50.59375 74.21875 56.203125 72.84375 
Q 61.8125 71.484375 67 68.796875 
L 67 53.71875 
Q 61.765625 57.28125 56.6875 58.9375 
Q 51.609375 60.59375 46 60.59375 
Q 35.9375 60.59375 30.171875 54.140625 
Q 24.421875 47.703125 24.421875 36.375 
Q 24.421875 25.09375 30.171875 18.640625 
Q 35.9375 12.203125 46 12.203125 
Q 51.609375 12.203125 56.6875 13.859375 
Q 61.765625 15.53125 67 19.09375 
z
" id="DejaVuSans-Bold-67"/>
     <path d="M 59.078125 45.609375 
Q 62.40625 50.6875 66.96875 53.34375 
Q 71.53125 56 77 56 
Q 86.421875 56 91.359375 50.1875 
Q 96.296875 44.390625 96.296875 33.296875 
L 96.296875 0 
L 78.71875 0 
L 78.71875 28.515625 
Q 78.765625 29.15625 78.78125 29.828125 
Q 78.8125 30.515625 78.8125 31.78125 
Q 78.8125 37.59375 77.09375 40.203125 
Q 75.390625 42.828125 71.578125 42.828125 
Q 66.609375 42.828125 63.890625 38.71875 
Q 61.1875 34.625 61.078125 26.859375 
L 61.078125 0 
L 43.5 0 
L 43.5 28.515625 
Q 43.5 37.59375 41.9375 40.203125 
Q 40.375 42.828125 36.375 42.828125 
Q 31.34375 42.828125 28.609375 38.703125 
Q 25.875 34.578125 25.875 26.90625 
L 25.875 0 
L 8.296875 0 
L 8.296875 54.6875 
L 25.875 54.6875 
L 25.875 46.6875 
Q 29.109375 51.3125 33.28125 53.65625 
Q 37.453125 56 42.484375 56 
Q 48.140625 56 52.484375 53.265625 
Q 56.84375 50.53125 59.078125 45.609375 
z
" id="DejaVuSans-Bold-109"/>
    </defs>
    <g transform="translate(1115.724863 984.557659)scale(0.15 -0.15)">
     <use xlink:href="#DejaVuSans-Bold-83"/>
     <use x="72.021484" xlink:href="#DejaVuSans-Bold-108"/>
     <use x="106.298828" xlink:href="#DejaVuSans-Bold-99"/>
     <use x="165.576172" xlink:href="#DejaVuSans-Bold-50"/>
     <use x="235.15625" xlink:href="#DejaVuSans-Bold-57"/>
     <use x="304.736328" xlink:href="#DejaVuSans-Bold-97"/>
     <use x="372.216797" xlink:href="#DejaVuSans-Bold-51"/>
     <use x="441.796875" xlink:href="#DejaVuSans-Bold-32"/>
     <use x="476.611328" xlink:href="#DejaVuSans-Bold-67"/>
     <use x="550" xlink:href="#DejaVuSans-Bold-101"/>
     <use x="617.822266" xlink:href="#DejaVuSans-Bold-114"/>
     <use x="667.138672" xlink:href="#DejaVuSans-Bold-101"/>
     <use x="734.960938" xlink:href="#DejaVuSans-Bold-98"/>
     <use x="806.542969" xlink:href="#DejaVuSans-Bold-101"/>
     <use x="874.365234" xlink:href="#DejaVuSans-Bold-108"/>
     <use x="908.642578" xlink:href="#DejaVuSans-Bold-108"/>
     <use x="942.919922" xlink:href="#DejaVuSans-Bold-117"/>
     <use x="1014.111328" xlink:href="#DejaVuSans-Bold-109"/>
    </g>
   </g>
   <g id="text_20">
    <g id="patch_11">
     <path d="M 1103.532689 1504.686595 
L 1266.409252 1504.686595 
L 1266.409252 1482.069407 
L 1103.532689 1482.069407 
z
" style="fill:#ffffff;stroke:#ffffff;stroke-linejoin:miter;"/>
    </g>
    <!-- Cdh23 Cerebellum -->
    <defs>
     <path d="M 63.375 33.296875 
L 63.375 0 
L 45.796875 0 
L 45.796875 5.421875 
L 45.796875 25.390625 
Q 45.796875 32.5625 45.484375 35.25 
Q 45.171875 37.9375 44.390625 39.203125 
Q 43.359375 40.921875 41.59375 41.875 
Q 39.84375 42.828125 37.59375 42.828125 
Q 32.125 42.828125 29 38.59375 
Q 25.875 34.375 25.875 26.90625 
L 25.875 0 
L 8.40625 0 
L 8.40625 75.984375 
L 25.875 75.984375 
L 25.875 46.6875 
Q 29.828125 51.46875 34.265625 53.734375 
Q 38.71875 56 44.09375 56 
Q 53.5625 56 58.46875 50.1875 
Q 63.375 44.390625 63.375 33.296875 
z
" id="DejaVuSans-Bold-104"/>
    </defs>
    <g transform="translate(1107.582689 1497.517064)scale(0.15 -0.15)">
     <use xlink:href="#DejaVuSans-Bold-67"/>
     <use x="73.388672" xlink:href="#DejaVuSans-Bold-100"/>
     <use x="144.970703" xlink:href="#DejaVuSans-Bold-104"/>
     <use x="216.162109" xlink:href="#DejaVuSans-Bold-50"/>
     <use x="285.742188" xlink:href="#DejaVuSans-Bold-51"/>
     <use x="355.322266" xlink:href="#DejaVuSans-Bold-32"/>
     <use x="390.136719" xlink:href="#DejaVuSans-Bold-67"/>
     <use x="463.525391" xlink:href="#DejaVuSans-Bold-101"/>
     <use x="531.347656" xlink:href="#DejaVuSans-Bold-114"/>
     <use x="580.664062" xlink:href="#DejaVuSans-Bold-101"/>
     <use x="648.486328" xlink:href="#DejaVuSans-Bold-98"/>
     <use x="720.068359" xlink:href="#DejaVuSans-Bold-101"/>
     <use x="787.890625" xlink:href="#DejaVuSans-Bold-108"/>
     <use x="822.167969" xlink:href="#DejaVuSans-Bold-108"/>
     <use x="856.445312" xlink:href="#DejaVuSans-Bold-117"/>
     <use x="927.636719" xlink:href="#DejaVuSans-Bold-109"/>
    </g>
   </g>
   <g id="text_21">
    <g id="patch_12">
     <path d="M 726.610209 1058.677718 
L 869.264896 1058.677718 
L 869.264896 1036.06053 
L 726.610209 1036.06053 
z
" style="fill:#ffffff;stroke:#ffffff;stroke-linejoin:miter;"/>
    </g>
    <!-- Vsir Cerebellum -->
    <g transform="translate(730.660209 1051.508187)scale(0.15 -0.15)">
     <use xlink:href="#DejaVuSans-Bold-86"/>
     <use x="77.392578" xlink:href="#DejaVuSans-Bold-115"/>
     <use x="136.914062" xlink:href="#DejaVuSans-Bold-105"/>
     <use x="171.191406" xlink:href="#DejaVuSans-Bold-114"/>
     <use x="220.507812" xlink:href="#DejaVuSans-Bold-32"/>
     <use x="255.322266" xlink:href="#DejaVuSans-Bold-67"/>
     <use x="328.710938" xlink:href="#DejaVuSans-Bold-101"/>
     <use x="396.533203" xlink:href="#DejaVuSans-Bold-114"/>
     <use x="445.849609" xlink:href="#DejaVuSans-Bold-101"/>
     <use x="513.671875" xlink:href="#DejaVuSans-Bold-98"/>
     <use x="585.253906" xlink:href="#DejaVuSans-Bold-101"/>
     <use x="653.076172" xlink:href="#DejaVuSans-Bold-108"/>
     <use x="687.353516" xlink:href="#DejaVuSans-Bold-108"/>
     <use x="721.630859" xlink:href="#DejaVuSans-Bold-117"/>
     <use x="792.822266" xlink:href="#DejaVuSans-Bold-109"/>
    </g>
   </g>
   <g id="text_22">
    <g id="patch_13">
     <path d="M 442.162169 1047.641797 
L 563.802794 1047.641797 
L 563.802794 1025.024609 
L 442.162169 1025.024609 
z
" style="fill:#ffffff;stroke:#ffffff;stroke-linejoin:miter;"/>
    </g>
    <!-- Slc29a3 Liver -->
    <defs>
     <path d="M 9.1875 72.90625 
L 27.984375 72.90625 
L 27.984375 14.203125 
L 60.984375 14.203125 
L 60.984375 0 
L 9.1875 0 
z
" id="DejaVuSans-Bold-76"/>
     <path d="M 1.515625 54.6875 
L 19 54.6875 
L 32.625 16.890625 
L 46.1875 54.6875 
L 63.71875 54.6875 
L 42.1875 0 
L 23 0 
z
" id="DejaVuSans-Bold-118"/>
    </defs>
    <g transform="translate(446.212169 1040.472266)scale(0.15 -0.15)">
     <use xlink:href="#DejaVuSans-Bold-83"/>
     <use x="72.021484" xlink:href="#DejaVuSans-Bold-108"/>
     <use x="106.298828" xlink:href="#DejaVuSans-Bold-99"/>
     <use x="165.576172" xlink:href="#DejaVuSans-Bold-50"/>
     <use x="235.15625" xlink:href="#DejaVuSans-Bold-57"/>
     <use x="304.736328" xlink:href="#DejaVuSans-Bold-97"/>
     <use x="372.216797" xlink:href="#DejaVuSans-Bold-51"/>
     <use x="441.796875" xlink:href="#DejaVuSans-Bold-32"/>
     <use x="476.611328" xlink:href="#DejaVuSans-Bold-76"/>
     <use x="540.332031" xlink:href="#DejaVuSans-Bold-105"/>
     <use x="574.609375" xlink:href="#DejaVuSans-Bold-118"/>
     <use x="639.794922" xlink:href="#DejaVuSans-Bold-101"/>
     <use x="707.617188" xlink:href="#DejaVuSans-Bold-114"/>
    </g>
   </g>
  </g>
 </g>
 <defs>
  <clipPath id="p2c84d56c20">
   <rect height="1359" width="1395" x="225" y="216"/>
  </clipPath>
 </defs>
</svg>
